999
"DXF R12 Output" (www.mydxf.blogspot.com)
 0 
SECTION
 2 
HEADER
 9 
$ACADVER
 1 
AC1009
 9 
$EXTMIN
 10 
 0 
 20 
 0 
 9 
$EXTMAX
 10 
 8.5 
 20 
 11 
 0 
ENDSEC
 0 
SECTION
 2 
ENTITIES
0
POLYLINE
8
Layer 1
62
7
70
0
10
0.000000
20
0.000000
66
1
0
VERTEX
8
Layer 1
10
14.788099
20
45.570825
70
0
0
VERTEX
8
Layer 1
10
14.870173
20
45.673483
70
0
0
VERTEX
8
Layer 1
10
15.850861
20
46.234817
70
0
0
VERTEX
8
Layer 1
10
18.120727
20
47.174344
70
0
0
VERTEX
8
Layer 1
10
19.761457
20
47.665996
70
0
0
VERTEX
8
Layer 1
10
21.751310
20
48.108276
70
0
0
VERTEX
8
Layer 1
10
24.099227
20
48.453210
70
0
0
VERTEX
8
Layer 1
10
26.814151
20
48.652825
70
0
0
VERTEX
8
Layer 1
10
29.905024
20
48.659148
70
0
0
VERTEX
8
Layer 1
10
33.380789
20
48.424205
70
0
0
VERTEX
8
Layer 1
10
37.250388
20
47.900022
70
0
0
VERTEX
8
Layer 1
10
41.522764
20
47.038627
70
0
0
VERTEX
8
Layer 1
10
46.206859
20
45.792045
70
0
0
VERTEX
8
Layer 1
10
51.311615
20
44.112303
70
0
0
VERTEX
8
Layer 1
10
56.845976
20
41.951428
70
0
0
VERTEX
8
Layer 1
10
62.818883
20
39.261446
70
0
0
VERTEX
8
Layer 1
10
65.744760
20
37.952209
70
0
0
VERTEX
8
Layer 1
10
68.667389
20
36.824759
70
0
0
VERTEX
8
Layer 1
10
71.581999
20
35.870583
70
0
0
VERTEX
8
Layer 1
10
74.483812
20
35.081170
70
0
0
VERTEX
8
Layer 1
10
80.229953
20
33.962582
70
0
0
VERTEX
8
Layer 1
10
85.867614
20
33.400893
70
0
0
VERTEX
8
Layer 1
10
91.358597
20
33.328005
70
0
0
VERTEX
8
Layer 1
10
96.664705
20
33.675817
70
0
0
VERTEX
8
Layer 1
10
101.747739
20
34.376231
70
0
0
VERTEX
8
Layer 1
10
106.569501
20
35.361146
70
0
0
VERTEX
8
Layer 1
10
111.091794
20
36.562462
70
0
0
VERTEX
8
Layer 1
10
115.276419
20
37.912081
70
0
0
VERTEX
8
Layer 1
10
119.085178
20
39.341902
70
0
0
VERTEX
8
Layer 1
10
122.479874
20
40.783826
70
0
0
VERTEX
8
Layer 1
10
127.874281
20
43.431583
70
0
0
VERTEX
8
Layer 1
10
131.154058
20
45.310555
70
0
0
VERTEX
8
Layer 1
10
131.462661
20
45.238290
70
0
0
VERTEX
8
Layer 1
10
131.555166
20
44.931989
70
0
0
VERTEX
8
Layer 1
10
125.871394
20
33.868187
70
0
0
VERTEX
8
Layer 1
10
125.878769
20
33.611525
70
0
0
VERTEX
8
Layer 1
10
126.100258
20
33.483589
70
0
0
VERTEX
8
Layer 1
10
138.504703
20
33.480467
70
0
0
VERTEX
8
Layer 1
10
138.760455
20
33.326469
70
0
0
VERTEX
8
Layer 1
10
138.706050
20
33.046842
70
0
0
VERTEX
8
Layer 1
10
136.208814
20
30.761936
70
0
0
VERTEX
8
Layer 1
10
131.854190
20
27.013982
70
0
0
VERTEX
8
Layer 1
10
125.986252
20
22.347817
70
0
0
VERTEX
8
Layer 1
10
118.949075
20
17.308284
70
0
0
VERTEX
8
Layer 1
10
115.099546
20
14.818766
70
0
0
VERTEX
8
Layer 1
10
111.086735
20
12.440221
70
0
0
VERTEX
8
Layer 1
10
106.953651
20
10.240754
70
0
0
VERTEX
8
Layer 1
10
102.743305
20
8.288470
70
0
0
VERTEX
8
Layer 1
10
98.498704
20
6.651473
70
0
0
VERTEX
8
Layer 1
10
94.262860
20
5.397869
70
0
0
VERTEX
8
Layer 1
10
90.078780
20
4.595763
70
0
0
VERTEX
8
Layer 1
10
85.989475
20
4.313260
70
0
0
VERTEX
8
Layer 1
10
77.773254
20
4.553803
70
0
0
VERTEX
8
Layer 1
10
70.401824
20
5.222843
70
0
0
VERTEX
8
Layer 1
10
63.724118
20
6.241498
70
0
0
VERTEX
8
Layer 1
10
57.589070
20
7.530887
70
0
0
VERTEX
8
Layer 1
10
51.845612
20
9.012128
70
0
0
VERTEX
8
Layer 1
10
46.342680
20
10.606338
70
0
0
VERTEX
8
Layer 1
10
35.454122
20
13.818140
70
0
0
VERTEX
8
Layer 1
10
25.782686
20
16.336151
70
0
0
VERTEX
8
Layer 1
10
21.733702
20
17.213975
70
0
0
VERTEX
8
Layer 1
10
18.061186
20
17.835237
70
0
0
VERTEX
8
Layer 1
10
14.654124
20
18.198110
70
0
0
VERTEX
8
Layer 1
10
11.401500
20
18.300763
70
0
0
VERTEX
8
Layer 1
10
8.192297
20
18.141367
70
0
0
VERTEX
8
Layer 1
10
4.915502
20
17.718093
70
0
0
VERTEX
8
Layer 1
10
4.672235
20
17.802958
70
0
0
VERTEX
8
Layer 1
10
4.613454
20
18.052526
70
0
0
VERTEX
8
Layer 1
10
8.069782
20
30.189239
70
0
0
VERTEX
8
Layer 1
10
14.788099
20
45.570825
70
0
0
SEQEND
8
Layer 1
0
POLYLINE
8
Layer 1
62
7
70
0
10
0.000000
20
0.000000
66
1
0
VERTEX
8
Layer 1
10
22.140570
20
39.922057
70
0
0
VERTEX
8
Layer 1
10
21.318213
20
35.923395
70
0
0
VERTEX
8
Layer 1
10
19.695638
20
30.105896
70
0
0
VERTEX
8
Layer 1
10
18.941824
20
27.837651
70
0
0
VERTEX
8
Layer 1
10
18.799885
20
26.261783
70
0
0
VERTEX
8
Layer 1
10
18.916045
20
25.710015
70
0
0
VERTEX
8
Layer 1
10
19.134384
20
25.303171
70
0
0
VERTEX
8
Layer 1
10
19.809882
20
24.886692
70
0
0
VERTEX
8
Layer 1
10
20.690939
20
24.937225
70
0
0
VERTEX
8
Layer 1
10
21.642118
20
25.379649
70
0
0
VERTEX
8
Layer 1
10
22.527979
20
26.138842
70
0
0
VERTEX
8
Layer 1
10
23.213084
20
27.139682
70
0
0
VERTEX
8
Layer 1
10
24.943086
20
30.506765
70
0
0
VERTEX
8
Layer 1
10
29.458936
20
28.775467
70
0
0
VERTEX
8
Layer 1
10
28.723660
20
25.017621
70
0
0
VERTEX
8
Layer 1
10
28.435319
20
23.590062
70
0
0
VERTEX
8
Layer 1
10
28.567552
20
22.599990
70
0
0
VERTEX
8
Layer 1
10
29.020204
20
22.021472
70
0
0
VERTEX
8
Layer 1
10
29.693125
20
21.828575
70
0
0
VERTEX
8
Layer 1
10
30.486162
20
21.995366
70
0
0
VERTEX
8
Layer 1
10
31.299164
20
22.495910
70
0
0
VERTEX
8
Layer 1
10
32.031979
20
23.304275
70
0
0
VERTEX
8
Layer 1
10
32.584455
20
24.394528
70
0
0
VERTEX
8
Layer 1
10
34.297927
20
29.824403
70
0
0
VERTEX
8
Layer 1
10
35.363407
20
33.513115
70
0
0
VERTEX
8
Layer 1
10
36.120342
20
36.773255
70
0
0
VERTEX
8
Layer 1
10
36.297870
20
37.640647
70
0
0
VERTEX
8
Layer 1
10
36.139206
20
38.420925
70
0
0
VERTEX
8
Layer 1
10
35.717135
20
39.046300
70
0
0
VERTEX
8
Layer 1
10
35.104442
20
39.448986
70
0
0
VERTEX
8
Layer 1
10
34.373916
20
39.561196
70
0
0
VERTEX
8
Layer 1
10
33.598341
20
39.315143
70
0
0
VERTEX
8
Layer 1
10
32.850504
20
38.643040
70
0
0
VERTEX
8
Layer 1
10
32.203191
20
37.477099
70
0
0
VERTEX
8
Layer 1
10
30.825838
20
34.701077
70
0
0
VERTEX
8
Layer 1
10
30.060862
20
32.981913
70
0
0
VERTEX
8
Layer 1
10
28.191567
20
33.689213
70
0
0
VERTEX
8
Layer 1
10
26.288993
20
34.508610
70
0
0
VERTEX
8
Layer 1
10
26.392488
20
35.444691
70
0
0
VERTEX
8
Layer 1
10
26.620225
20
36.782965
70
0
0
VERTEX
8
Layer 1
10
26.381942
20
38.846529
70
0
0
VERTEX
8
Layer 1
10
25.890967
20
40.322278
70
0
0
VERTEX
8
Layer 1
10
25.227693
20
41.265381
70
0
0
VERTEX
8
Layer 1
10
24.472512
20
41.731005
70
0
0
VERTEX
8
Layer 1
10
23.705817
20
41.774317
70
0
0
VERTEX
8
Layer 1
10
23.008000
20
41.450485
70
0
0
VERTEX
8
Layer 1
10
22.459453
20
40.814676
70
0
0
VERTEX
8
Layer 1
10
22.140570
20
39.922057
70
0
0
VERTEX
8
Layer 1
10
22.140570
20
39.922057
70
0
0
SEQEND
8
Layer 1
0
POLYLINE
8
Layer 1
62
7
70
0
10
0.000000
20
0.000000
66
1
0
VERTEX
8
Layer 1
10
42.037741
20
34.987928
70
0
0
VERTEX
8
Layer 1
10
42.923751
20
36.369076
70
0
0
VERTEX
8
Layer 1
10
43.825958
20
37.168869
70
0
0
VERTEX
8
Layer 1
10
44.696664
20
37.520091
70
0
0
VERTEX
8
Layer 1
10
45.488168
20
37.555521
70
0
0
VERTEX
8
Layer 1
10
45.829744
20
37.387805
70
0
0
VERTEX
8
Layer 1
10
46.201483
20
36.990951
70
0
0
VERTEX
8
Layer 1
10
46.927499
20
35.832318
70
0
0
VERTEX
8
Layer 1
10
47.291404
20
33.602542
70
0
0
VERTEX
8
Layer 1
10
47.350088
20
31.107305
70
0
0
VERTEX
8
Layer 1
10
47.175633
20
28.509691
70
0
0
VERTEX
8
Layer 1
10
46.840121
20
25.972788
70
0
0
VERTEX
8
Layer 1
10
45.974256
20
21.733457
70
0
0
VERTEX
8
Layer 1
10
45.329153
20
19.693999
70
0
0
VERTEX
8
Layer 1
10
44.693736
20
18.881769
70
0
0
VERTEX
8
Layer 1
10
44.005602
20
18.343770
70
0
0
VERTEX
8
Layer 1
10
43.323260
20
18.071137
70
0
0
VERTEX
8
Layer 1
10
42.705218
20
18.055007
70
0
0
VERTEX
8
Layer 1
10
42.209983
20
18.286513
70
0
0
VERTEX
8
Layer 1
10
41.896065
20
18.756792
70
0
0
VERTEX
8
Layer 1
10
41.821970
20
19.456980
70
0
0
VERTEX
8
Layer 1
10
42.046207
20
20.378211
70
0
0
VERTEX
8
Layer 1
10
43.059825
20
23.559848
70
0
0
VERTEX
8
Layer 1
10
39.489013
20
23.958574
70
0
0
VERTEX
8
Layer 1
10
38.457284
20
22.261996
70
0
0
VERTEX
8
Layer 1
10
37.495380
20
21.200637
70
0
0
VERTEX
8
Layer 1
10
36.646585
20
20.684722
70
0
0
VERTEX
8
Layer 1
10
35.954184
20
20.624478
70
0
0
VERTEX
8
Layer 1
10
35.461460
20
20.930129
70
0
0
VERTEX
8
Layer 1
10
35.211698
20
21.511903
70
0
0
VERTEX
8
Layer 1
10
35.248181
20
22.280023
70
0
0
VERTEX
8
Layer 1
10
35.614195
20
23.144717
70
0
0
VERTEX
8
Layer 1
10
42.037741
20
34.987928
70
0
0
VERTEX
8
Layer 1
10
42.037741
20
34.987928
70
0
0
SEQEND
8
Layer 1
0
POLYLINE
8
Layer 1
62
7
70
0
10
0.000000
20
0.000000
66
1
0
VERTEX
8
Layer 1
10
40.857436
20
27.981770
70
0
0
VERTEX
8
Layer 1
10
44.377448
20
27.380982
70
0
0
VERTEX
8
Layer 1
10
44.728848
20
30.398372
70
0
0
VERTEX
8
Layer 1
10
44.738542
20
32.334898
70
0
0
VERTEX
8
Layer 1
10
44.576601
20
32.874849
70
0
0
VERTEX
8
Layer 1
10
44.438273
20
32.970837
70
0
0
VERTEX
8
Layer 1
10
44.255740
20
32.925345
70
0
0
VERTEX
8
Layer 1
10
40.857436
20
27.981770
70
0
0
SEQEND
8
Layer 1
0
POLYLINE
8
Layer 1
62
7
70
0
10
0.000000
20
0.000000
66
1
0
VERTEX
8
Layer 1
10
60.215387
20
29.496058
70
0
0
VERTEX
8
Layer 1
10
60.320950
20
30.055969
70
0
0
VERTEX
8
Layer 1
10
60.280528
20
30.711118
70
0
0
VERTEX
8
Layer 1
10
60.082627
20
31.401512
70
0
0
VERTEX
8
Layer 1
10
59.715755
20
32.067157
70
0
0
VERTEX
8
Layer 1
10
59.168416
20
32.648059
70
0
0
VERTEX
8
Layer 1
10
58.429117
20
33.084225
70
0
0
VERTEX
8
Layer 1
10
57.486363
20
33.315661
70
0
0
VERTEX
8
Layer 1
10
56.328662
20
33.282373
70
0
0
VERTEX
8
Layer 1
10
55.446848
20
33.179710
70
0
0
VERTEX
8
Layer 1
10
54.637955
20
32.901704
70
0
0
VERTEX
8
Layer 1
10
53.230085
20
31.920095
70
0
0
VERTEX
8
Layer 1
10
52.087359
20
30.538414
70
0
0
VERTEX
8
Layer 1
10
51.192081
20
28.957523
70
0
0
VERTEX
8
Layer 1
10
50.526556
20
27.378288
70
0
0
VERTEX
8
Layer 1
10
50.073089
20
26.001573
70
0
0
VERTEX
8
Layer 1
10
49.731550
20
24.659164
70
0
0
VERTEX
8
Layer 1
10
49.484925
20
22.225198
70
0
0
VERTEX
8
Layer 1
10
49.586554
20
19.953894
70
0
0
VERTEX
8
Layer 1
10
49.813161
20
18.779581
70
0
0
VERTEX
8
Layer 1
10
50.202508
20
17.665177
70
0
0
VERTEX
8
Layer 1
10
50.711028
20
16.762516
70
0
0
VERTEX
8
Layer 1
10
51.329433
20
16.082631
70
0
0
VERTEX
8
Layer 1
10
52.011437
20
15.592887
70
0
0
VERTEX
8
Layer 1
10
52.710754
20
15.260646
70
0
0
VERTEX
8
Layer 1
10
53.976189
20
14.938128
70
0
0
VERTEX
8
Layer 1
10
54.755452
20
14.853982
70
0
0
VERTEX
8
Layer 1
10
55.768920
20
15.265505
70
0
0
VERTEX
8
Layer 1
10
56.434578
20
15.749195
70
0
0
VERTEX
8
Layer 1
10
56.809501
20
16.266959
70
0
0
VERTEX
8
Layer 1
10
56.950763
20
16.780709
70
0
0
VERTEX
8
Layer 1
10
56.760611
20
17.643799
70
0
0
VERTEX
8
Layer 1
10
56.320725
20
18.033741
70
0
0
VERTEX
8
Layer 1
10
55.136947
20
18.085797
70
0
0
VERTEX
8
Layer 1
10
54.505954
20
18.235998
70
0
0
VERTEX
8
Layer 1
10
53.902965
20
18.580369
70
0
0
VERTEX
8
Layer 1
10
53.484060
20
19.043628
70
0
0
VERTEX
8
Layer 1
10
53.191481
20
19.624787
70
0
0
VERTEX
8
Layer 1
10
52.915839
20
21.007538
70
0
0
VERTEX
8
Layer 1
10
52.937109
20
22.462088
70
0
0
VERTEX
8
Layer 1
10
53.116360
20
23.721905
70
0
0
VERTEX
8
Layer 1
10
53.766366
20
25.842393
70
0
0
VERTEX
8
Layer 1
10
54.722710
20
28.072503
70
0
0
VERTEX
8
Layer 1
10
55.317851
20
28.984806
70
0
0
VERTEX
8
Layer 1
10
55.992088
20
29.631885
70
0
0
VERTEX
8
Layer 1
10
56.746258
20
29.916193
70
0
0
VERTEX
8
Layer 1
10
57.581198
20
29.740189
70
0
0
VERTEX
8
Layer 1
10
58.548811
20
28.844836
70
0
0
VERTEX
8
Layer 1
10
59.330092
20
28.675180
70
0
0
VERTEX
8
Layer 1
10
59.895473
20
28.976996
70
0
0
VERTEX
8
Layer 1
10
60.215387
20
29.496058
70
0
0
VERTEX
8
Layer 1
10
60.215387
20
29.496058
70
0
0
SEQEND
8
Layer 1
0
POLYLINE
8
Layer 1
62
7
70
0
10
0.000000
20
0.000000
66
1
0
VERTEX
8
Layer 1
10
63.438801
20
29.716773
70
0
0
VERTEX
8
Layer 1
10
63.075769
20
27.683845
70
0
0
VERTEX
8
Layer 1
10
62.955673
20
25.401686
70
0
0
VERTEX
8
Layer 1
10
62.593087
20
22.673614
70
0
0
VERTEX
8
Layer 1
10
62.169164
20
21.080897
70
0
0
VERTEX
8
Layer 1
10
61.502583
20
19.302945
70
0
0
VERTEX
8
Layer 1
10
59.579329
20
15.516498
70
0
0
VERTEX
8
Layer 1
10
59.294658
20
14.720417
70
0
0
VERTEX
8
Layer 1
10
59.309653
20
14.062445
70
0
0
VERTEX
8
Layer 1
10
59.584799
20
13.593627
70
0
0
VERTEX
8
Layer 1
10
60.080582
20
13.365008
70
0
0
VERTEX
8
Layer 1
10
60.757488
20
13.427633
70
0
0
VERTEX
8
Layer 1
10
61.576005
20
13.832547
70
0
0
VERTEX
8
Layer 1
10
62.496617
20
14.630795
70
0
0
VERTEX
8
Layer 1
10
63.479812
20
15.873421
70
0
0
VERTEX
8
Layer 1
10
64.402115
20
17.821347
70
0
0
VERTEX
8
Layer 1
10
64.839239
20
19.091014
70
0
0
VERTEX
8
Layer 1
10
66.001023
20
19.221454
70
0
0
VERTEX
8
Layer 1
10
66.537697
20
16.749058
70
0
0
VERTEX
8
Layer 1
10
67.249590
20
12.841564
70
0
0
VERTEX
8
Layer 1
10
67.472667
20
12.194010
70
0
0
VERTEX
8
Layer 1
10
67.905789
20
11.666543
70
0
0
VERTEX
8
Layer 1
10
68.475784
20
11.304608
70
0
0
VERTEX
8
Layer 1
10
69.109476
20
11.153657
70
0
0
VERTEX
8
Layer 1
10
69.733694
20
11.259135
70
0
0
VERTEX
8
Layer 1
10
70.275262
20
11.666493
70
0
0
VERTEX
8
Layer 1
10
70.661008
20
12.421178
70
0
0
VERTEX
8
Layer 1
10
70.817757
20
13.568638
70
0
0
VERTEX
8
Layer 1
10
70.397433
20
15.761899
70
0
0
VERTEX
8
Layer 1
10
69.453831
20
18.623496
70
0
0
VERTEX
8
Layer 1
10
69.123466
20
19.430044
70
0
0
VERTEX
8
Layer 1
10
68.787789
20
20.027353
70
0
0
VERTEX
8
Layer 1
10
68.407141
20
20.388794
70
0
0
VERTEX
8
Layer 1
10
70.275461
20
22.379662
70
0
0
VERTEX
8
Layer 1
10
71.633321
20
24.045519
70
0
0
VERTEX
8
Layer 1
10
72.404725
20
25.427010
70
0
0
VERTEX
8
Layer 1
10
72.466915
20
26.402571
70
0
0
VERTEX
8
Layer 1
10
72.319321
20
26.739718
70
0
0
VERTEX
8
Layer 1
10
72.034475
20
26.929828
70
0
0
VERTEX
8
Layer 1
10
71.598778
20
26.937942
70
0
0
VERTEX
8
Layer 1
10
70.998636
20
26.729098
70
0
0
VERTEX
8
Layer 1
10
69.250632
20
25.520699
70
0
0
VERTEX
8
Layer 1
10
66.588034
20
23.028720
70
0
0
VERTEX
8
Layer 1
10
66.065581
20
22.342422
70
0
0
VERTEX
8
Layer 1
10
66.396442
20
24.147321
70
0
0
VERTEX
8
Layer 1
10
66.609622
20
25.873127
70
0
0
VERTEX
8
Layer 1
10
66.676503
20
27.676442
70
0
0
VERTEX
8
Layer 1
10
66.639143
20
28.551060
70
0
0
VERTEX
8
Layer 1
10
66.380051
20
29.325323
70
0
0
VERTEX
8
Layer 1
10
65.957613
20
29.960897
70
0
0
VERTEX
8
Layer 1
10
65.430218
20
30.419450
70
0
0
VERTEX
8
Layer 1
10
64.856253
20
30.662647
70
0
0
VERTEX
8
Layer 1
10
64.294103
20
30.652156
70
0
0
VERTEX
8
Layer 1
10
63.802157
20
30.349642
70
0
0
VERTEX
8
Layer 1
10
63.438801
20
29.716773
70
0
0
VERTEX
8
Layer 1
10
63.438801
20
29.716773
70
0
0
SEQEND
8
Layer 1
0
POLYLINE
8
Layer 1
62
7
70
0
10
0.000000
20
0.000000
66
1
0
VERTEX
8
Layer 1
10
81.819647
20
25.143747
70
0
0
VERTEX
8
Layer 1
10
80.992697
20
24.032058
70
0
0
VERTEX
8
Layer 1
10
80.373734
20
22.511266
70
0
0
VERTEX
8
Layer 1
10
80.000486
20
20.571612
70
0
0
VERTEX
8
Layer 1
10
79.910681
20
18.203338
70
0
0
VERTEX
8
Layer 1
10
80.065742
20
16.378726
70
0
0
VERTEX
8
Layer 1
10
80.399394
20
14.775285
70
0
0
VERTEX
8
Layer 1
10
80.906326
20
13.408902
70
0
0
VERTEX
8
Layer 1
10
81.581225
20
12.295465
70
0
0
VERTEX
8
Layer 1
10
82.418780
20
11.450860
70
0
0
VERTEX
8
Layer 1
10
83.413681
20
10.890975
70
0
0
VERTEX
8
Layer 1
10
84.560616
20
10.631698
70
0
0
VERTEX
8
Layer 1
10
85.854273
20
10.688917
70
0
0
VERTEX
8
Layer 1
10
87.018486
20
10.996359
70
0
0
VERTEX
8
Layer 1
10
87.819844
20
11.441205
70
0
0
VERTEX
8
Layer 1
10
88.317171
20
11.969809
70
0
0
VERTEX
8
Layer 1
10
88.569292
20
12.528529
70
0
0
VERTEX
8
Layer 1
10
88.573211
20
13.521745
70
0
0
VERTEX
8
Layer 1
10
88.302195
20
13.991706
70
0
0
VERTEX
8
Layer 1
10
87.847112
20
14.136797
70
0
0
VERTEX
8
Layer 1
10
86.473662
20
13.808615
70
0
0
VERTEX
8
Layer 1
10
85.419981
20
13.622274
70
0
0
VERTEX
8
Layer 1
10
84.487272
20
13.930786
70
0
0
VERTEX
8
Layer 1
10
83.658098
20
14.772797
70
0
0
VERTEX
8
Layer 1
10
82.915021
20
16.186951
70
0
0
VERTEX
8
Layer 1
10
82.520440
20
17.575942
70
0
0
VERTEX
8
Layer 1
10
82.342827
20
19.250459
70
0
0
VERTEX
8
Layer 1
10
82.492386
20
20.949631
70
0
0
VERTEX
8
Layer 1
10
82.724296
20
21.726942
70
0
0
VERTEX
8
Layer 1
10
83.079327
20
22.412589
70
0
0
VERTEX
8
Layer 1
10
83.553129
20
22.927967
70
0
0
VERTEX
8
Layer 1
10
83.901121
20
23.147813
70
0
0
VERTEX
8
Layer 1
10
84.398360
20
23.320853
70
0
0
VERTEX
8
Layer 1
10
84.846906
20
23.294719
70
0
0
VERTEX
8
Layer 1
10
85.377759
20
23.057193
70
0
0
VERTEX
8
Layer 1
10
86.012849
20
22.675431
70
0
0
VERTEX
8
Layer 1
10
86.511712
20
22.527043
70
0
0
VERTEX
8
Layer 1
10
86.879879
20
22.576440
70
0
0
VERTEX
8
Layer 1
10
87.122882
20
22.788033
70
0
0
VERTEX
8
Layer 1
10
87.255521
20
23.555454
70
0
0
VERTEX
8
Layer 1
10
86.953880
20
24.544599
70
0
0
VERTEX
8
Layer 1
10
85.879822
20
25.661750
70
0
0
VERTEX
8
Layer 1
10
85.285984
20
25.994579
70
0
0
VERTEX
8
Layer 1
10
84.656638
20
26.168325
70
0
0
VERTEX
8
Layer 1
10
83.993558
20
26.176553
70
0
0
VERTEX
8
Layer 1
10
83.298517
20
26.012824
70
0
0
VERTEX
8
Layer 1
10
81.819647
20
25.143747
70
0
0
VERTEX
8
Layer 1
10
81.819647
20
25.143747
70
0
0
SEQEND
8
Layer 1
0
POLYLINE
8
Layer 1
62
7
70
0
10
0.000000
20
0.000000
66
1
0
VERTEX
8
Layer 1
10
89.958220
20
25.066039
70
0
0
VERTEX
8
Layer 1
10
90.040418
20
25.767022
70
0
0
VERTEX
8
Layer 1
10
90.274194
20
26.362452
70
0
0
VERTEX
8
Layer 1
10
90.620379
20
26.788737
70
0
0
VERTEX
8
Layer 1
10
91.039802
20
26.982285
70
0
0
VERTEX
8
Layer 1
10
91.493295
20
26.879503
70
0
0
VERTEX
8
Layer 1
10
91.941687
20
26.416798
70
0
0
VERTEX
8
Layer 1
10
92.345809
20
25.530578
70
0
0
VERTEX
8
Layer 1
10
92.666492
20
24.157250
70
0
0
VERTEX
8
Layer 1
10
93.144552
20
21.664770
70
0
0
VERTEX
8
Layer 1
10
93.373920
20
18.895421
70
0
0
VERTEX
8
Layer 1
10
93.517862
20
16.560551
70
0
0
VERTEX
8
Layer 1
10
93.739640
20
15.371507
70
0
0
VERTEX
8
Layer 1
10
94.484512
20
15.194017
70
0
0
VERTEX
8
Layer 1
10
95.777095
20
15.317631
70
0
0
VERTEX
8
Layer 1
10
98.134628
20
15.856487
70
0
0
VERTEX
8
Layer 1
10
98.862426
20
15.949517
70
0
0
VERTEX
8
Layer 1
10
99.611630
20
15.812732
70
0
0
VERTEX
8
Layer 1
10
100.135955
20
15.463470
70
0
0
VERTEX
8
Layer 1
10
100.236824
20
15.214578
70
0
0
VERTEX
8
Layer 1
10
100.189115
20
14.919070
70
0
0
VERTEX
8
Layer 1
10
99.895313
20
14.404286
70
0
0
VERTEX
8
Layer 1
10
99.514693
20
14.107957
70
0
0
VERTEX
8
Layer 1
10
98.928377
20
13.869733
70
0
0
VERTEX
8
Layer 1
10
97.722359
20
13.505485
70
0
0
VERTEX
8
Layer 1
10
95.213500
20
12.907577
70
0
0
VERTEX
8
Layer 1
10
92.686980
20
12.590260
70
0
0
VERTEX
8
Layer 1
10
91.818716
20
12.697525
70
0
0
VERTEX
8
Layer 1
10
91.553616
20
12.845762
70
0
0
VERTEX
8
Layer 1
10
91.427979
20
13.067782
70
0
0
VERTEX
8
Layer 1
10
90.884260
20
17.481556
70
0
0
VERTEX
8
Layer 1
10
90.328768
20
21.432309
70
0
0
VERTEX
8
Layer 1
10
89.958220
20
25.066039
70
0
0
VERTEX
8
Layer 1
10
89.958220
20
25.066039
70
0
0
SEQEND
8
Layer 1
0
POLYLINE
8
Layer 1
62
7
70
0
10
0.000000
20
0.000000
66
1
0
VERTEX
8
Layer 1
10
98.436253
20
26.814563
70
0
0
VERTEX
8
Layer 1
10
98.585809
20
27.742156
70
0
0
VERTEX
8
Layer 1
10
99.128071
20
28.292176
70
0
0
VERTEX
8
Layer 1
10
99.482441
20
28.371987
70
0
0
VERTEX
8
Layer 1
10
99.858155
20
28.293075
70
0
0
VERTEX
8
Layer 1
10
100.229603
20
28.033996
70
0
0
VERTEX
8
Layer 1
10
100.571173
20
27.573307
70
0
0
VERTEX
8
Layer 1
10
101.077027
20
26.062499
70
0
0
VERTEX
8
Layer 1
10
101.640651
20
23.723830
70
0
0
VERTEX
8
Layer 1
10
102.280723
20
21.203085
70
0
0
VERTEX
8
Layer 1
10
103.015920
20
19.146048
70
0
0
VERTEX
8
Layer 1
10
103.543445
20
18.631554
70
0
0
VERTEX
8
Layer 1
10
104.183558
20
18.406902
70
0
0
VERTEX
8
Layer 1
10
104.820347
20
18.494739
70
0
0
VERTEX
8
Layer 1
10
105.337901
20
18.917713
70
0
0
VERTEX
8
Layer 1
10
105.638752
20
20.123151
70
0
0
VERTEX
8
Layer 1
10
105.626395
20
21.780798
70
0
0
VERTEX
8
Layer 1
10
105.113799
20
25.552052
70
0
0
VERTEX
8
Layer 1
10
104.696651
20
27.088115
70
0
0
VERTEX
8
Layer 1
10
104.508698
20
28.240797
70
0
0
VERTEX
8
Layer 1
10
104.668790
20
28.932673
70
0
0
VERTEX
8
Layer 1
10
104.940427
20
29.383612
70
0
0
VERTEX
8
Layer 1
10
105.295202
20
29.605064
70
0
0
VERTEX
8
Layer 1
10
105.704712
20
29.608483
70
0
0
VERTEX
8
Layer 1
10
106.140552
20
29.405320
70
0
0
VERTEX
8
Layer 1
10
106.574318
20
29.007027
70
0
0
VERTEX
8
Layer 1
10
107.322009
20
27.670859
70
0
0
VERTEX
8
Layer 1
10
108.225460
20
23.309648
70
0
0
VERTEX
8
Layer 1
10
108.437586
20
21.233556
70
0
0
VERTEX
8
Layer 1
10
108.353618
20
19.741889
70
0
0
VERTEX
8
Layer 1
10
108.075119
20
18.681146
70
0
0
VERTEX
8
Layer 1
10
107.659947
20
17.641463
70
0
0
VERTEX
8
Layer 1
10
106.977778
20
16.777943
70
0
0
VERTEX
8
Layer 1
10
106.495843
20
16.460714
70
0
0
VERTEX
8
Layer 1
10
105.898287
20
16.245689
70
0
0
VERTEX
8
Layer 1
10
105.017181
20
16.166765
70
0
0
VERTEX
8
Layer 1
10
103.424205
20
16.404273
70
0
0
VERTEX
8
Layer 1
10
102.531461
20
16.793130
70
0
0
VERTEX
8
Layer 1
10
101.665584
20
17.442824
70
0
0
VERTEX
8
Layer 1
10
100.894851
20
18.413929
70
0
0
VERTEX
8
Layer 1
10
100.287540
20
19.767024
70
0
0
VERTEX
8
Layer 1
10
98.935455
20
24.401953
70
0
0
VERTEX
8
Layer 1
10
98.436253
20
26.814563
70
0
0
VERTEX
8
Layer 1
10
98.436253
20
26.814563
70
0
0
SEQEND
8
Layer 1
0
POLYLINE
8
Layer 1
62
7
70
0
10
0.000000
20
0.000000
66
1
0
VERTEX
8
Layer 1
10
110.391436
20
31.476833
70
0
0
VERTEX
8
Layer 1
10
112.043137
20
32.364393
70
0
0
VERTEX
8
Layer 1
10
113.494068
20
32.898004
70
0
0
VERTEX
8
Layer 1
10
114.763033
20
33.072845
70
0
0
VERTEX
8
Layer 1
10
115.868833
20
32.884097
70
0
0
VERTEX
8
Layer 1
10
116.411724
20
32.367924
70
0
0
VERTEX
8
Layer 1
10
116.805589
20
31.626484
70
0
0
VERTEX
8
Layer 1
10
117.007962
20
30.758465
70
0
0
VERTEX
8
Layer 1
10
116.976378
20
29.862559
70
0
0
VERTEX
8
Layer 1
10
116.547852
20
28.558317
70
0
0
VERTEX
8
Layer 1
10
116.307247
20
28.016510
70
0
0
VERTEX
8
Layer 1
10
117.274472
20
27.690207
70
0
0
VERTEX
8
Layer 1
10
118.066327
20
26.972763
70
0
0
VERTEX
8
Layer 1
10
118.647046
20
25.940986
70
0
0
VERTEX
8
Layer 1
10
118.980858
20
24.671678
70
0
0
VERTEX
8
Layer 1
10
118.988442
20
23.996506
70
0
0
VERTEX
8
Layer 1
10
118.816701
20
23.337735
70
0
0
VERTEX
8
Layer 1
10
118.471551
20
22.701746
70
0
0
VERTEX
8
Layer 1
10
117.958907
20
22.094921
70
0
0
VERTEX
8
Layer 1
10
116.454802
20
20.994293
70
0
0
VERTEX
8
Layer 1
10
114.351714
20
20.086905
70
0
0
VERTEX
8
Layer 1
10
112.837803
20
19.871237
70
0
0
VERTEX
8
Layer 1
10
112.313999
20
19.950244
70
0
0
VERTEX
8
Layer 1
10
112.090059
20
20.161782
70
0
0
VERTEX
8
Layer 1
10
110.709233
20
25.144958
70
0
0
VERTEX
8
Layer 1
10
109.354006
20
29.581042
70
0
0
VERTEX
8
Layer 1
10
109.282668
20
29.987738
70
0
0
VERTEX
8
Layer 1
10
109.313525
20
30.429014
70
0
0
VERTEX
8
Layer 1
10
109.623980
20
30.920252
70
0
0
VERTEX
8
Layer 1
10
110.391436
20
31.476833
70
0
0
VERTEX
8
Layer 1
10
110.391436
20
31.476833
70
0
0
SEQEND
8
Layer 1
0
POLYLINE
8
Layer 1
62
7
70
0
10
0.000000
20
0.000000
66
1
0
VERTEX
8
Layer 1
10
111.363778
20
29.930795
70
0
0
VERTEX
8
Layer 1
10
112.538262
20
27.180243
70
0
0
VERTEX
8
Layer 1
10
113.919981
20
27.943270
70
0
0
VERTEX
8
Layer 1
10
114.799033
20
28.790007
70
0
0
VERTEX
8
Layer 1
10
115.038246
20
29.298458
70
0
0
VERTEX
8
Layer 1
10
115.049684
20
29.851737
70
0
0
VERTEX
8
Layer 1
10
114.858814
20
30.315613
70
0
0
VERTEX
8
Layer 1
10
114.551226
20
30.583945
70
0
0
VERTEX
8
Layer 1
10
113.665121
20
30.665638
70
0
0
VERTEX
8
Layer 1
10
112.549821
20
30.360145
70
0
0
VERTEX
8
Layer 1
10
111.363778
20
29.930795
70
0
0
VERTEX
8
Layer 1
10
111.363778
20
29.930795
70
0
0
SEQEND
8
Layer 1
0
POLYLINE
8
Layer 1
62
7
70
0
10
0.000000
20
0.000000
66
1
0
VERTEX
8
Layer 1
10
112.941487
20
25.059504
70
0
0
VERTEX
8
Layer 1
10
113.340280
20
23.390270
70
0
0
VERTEX
8
Layer 1
10
113.714069
20
21.835534
70
0
0
VERTEX
8
Layer 1
10
114.341565
20
22.126638
70
0
0
VERTEX
8
Layer 1
10
115.672149
20
22.715176
70
0
0
VERTEX
8
Layer 1
10
116.330302
20
23.142464
70
0
0
VERTEX
8
Layer 1
10
116.839270
20
23.669887
70
0
0
VERTEX
8
Layer 1
10
117.090735
20
24.306036
70
0
0
VERTEX
8
Layer 1
10
116.976378
20
25.059504
70
0
0
VERTEX
8
Layer 1
10
116.547612
20
25.683406
70
0
0
VERTEX
8
Layer 1
10
115.970656
20
25.976258
70
0
0
VERTEX
8
Layer 1
10
115.308807
20
26.014456
70
0
0
VERTEX
8
Layer 1
10
114.625359
20
25.874397
70
0
0
VERTEX
8
Layer 1
10
113.446849
20
25.365089
70
0
0
VERTEX
8
Layer 1
10
112.941487
20
25.059504
70
0
0
VERTEX
8
Layer 1
10
112.941487
20
25.059504
70
0
0
SEQEND
8
Layer 1
0
POLYLINE
8
Layer 1
62
7
70
0
10
0.000000
20
0.000000
66
1
0
VERTEX
8
Layer 1
10
14.889170
20
46.840196
70
0
0
VERTEX
8
Layer 1
10
15.091097
20
46.989747
70
0
0
VERTEX
8
Layer 1
10
15.681781
20
47.089986
70
0
0
VERTEX
8
Layer 1
10
15.958419
20
46.952432
70
0
0
VERTEX
8
Layer 1
10
16.046992
20
46.684691
70
0
0
VERTEX
8
Layer 1
10
15.877017
20
46.036438
70
0
0
VERTEX
8
Layer 1
10
12.802411
20
39.231909
70
0
0
VERTEX
8
Layer 1
10
10.033965
20
32.346400
70
0
0
VERTEX
8
Layer 1
10
7.204913
20
24.189158
70
0
0
VERTEX
8
Layer 1
10
6.041836
20
19.911315
70
0
0
VERTEX
8
Layer 1
10
5.189848
20
15.704196
70
0
0
VERTEX
8
Layer 1
10
4.600862
20
11.711611
70
0
0
VERTEX
8
Layer 1
10
4.226793
20
8.077370
70
0
0
VERTEX
8
Layer 1
10
3.931063
20
2.459156
70
0
0
VERTEX
8
Layer 1
10
3.917972
20
0.000028
70
0
0
VERTEX
8
Layer 1
10
0.002603
20
0.000028
70
0
0
VERTEX
8
Layer 1
10
0.148876
20
2.656874
70
0
0
VERTEX
8
Layer 1
10
0.816590
20
8.207743
70
0
0
VERTEX
8
Layer 1
10
1.415758
20
11.771375
70
0
0
VERTEX
8
Layer 1
10
2.229011
20
15.702038
70
0
0
VERTEX
8
Layer 1
10
3.284258
20
19.880907
70
0
0
VERTEX
8
Layer 1
10
4.609406
20
24.189158
70
0
0
VERTEX
8
Layer 1
10
6.154831
20
28.463711
70
0
0
VERTEX
8
Layer 1
10
7.795677
20
32.546950
70
0
0
VERTEX
8
Layer 1
10
11.023960
20
39.697443
70
0
0
VERTEX
8
Layer 1
10
13.614907
20
44.756553
70
0
0
VERTEX
8
Layer 1
10
14.889170
20
46.840196
70
0
0
VERTEX
8
Layer 1
10
14.889170
20
46.840196
70
0
0
SEQEND
8
Layer 1
 0 
ENDSEC
 0 
EOF