999
"DXF R12 Output" (www.mydxf.blogspot.com)
 0 
SECTION
 2 
HEADER
 9 
$ACADVER
 1 
AC1009
 9 
$EXTMIN
 10 
 0 
 20 
 0 
 9 
$EXTMAX
 10 
 8.5 
 20 
 11 
 0 
ENDSEC
 0 
SECTION
 2 
ENTITIES
0
POLYLINE
8
Layer 1
62
250
70
0
10
0.000000
20
0.000000
66
1
0
VERTEX
8
Layer 1
10
79.623200
20
190.977300
70
0
0
VERTEX
8
Layer 1
10
88.364923
20
193.833358
70
0
0
VERTEX
8
Layer 1
10
92.267843
20
194.886104
70
0
0
VERTEX
8
Layer 1
10
96.068787
20
195.667137
70
0
0
VERTEX
8
Layer 1
10
99.925246
20
196.160317
70
0
0
VERTEX
8
Layer 1
10
103.994708
20
196.349498
70
0
0
VERTEX
8
Layer 1
10
108.434663
20
196.218540
70
0
0
VERTEX
8
Layer 1
10
113.402600
20
195.751300
70
0
0
VERTEX
8
Layer 1
10
113.402600
20
195.751300
70
0
0
VERTEX
8
Layer 1
10
116.273200
20
195.331388
70
0
0
VERTEX
8
Layer 1
10
116.899016
20
195.004314
70
0
0
VERTEX
8
Layer 1
10
117.704700
20
194.368400
70
0
0
VERTEX
8
Layer 1
10
117.704700
20
194.368400
70
0
0
VERTEX
8
Layer 1
10
115.575800
20
192.531800
70
0
0
VERTEX
8
Layer 1
10
115.575800
20
192.531800
70
0
0
VERTEX
8
Layer 1
10
125.231100
20
183.723000
70
0
0
VERTEX
8
Layer 1
10
125.231100
20
183.723000
70
0
0
VERTEX
8
Layer 1
10
126.379789
20
182.667066
70
0
0
VERTEX
8
Layer 1
10
127.403688
20
181.569750
70
0
0
VERTEX
8
Layer 1
10
129.637100
20
179.287200
70
0
0
VERTEX
8
Layer 1
10
129.637100
20
179.287200
70
0
0
VERTEX
8
Layer 1
10
132.105238
20
177.175862
70
0
0
VERTEX
8
Layer 1
10
133.119130
20
176.073961
70
0
0
VERTEX
8
Layer 1
10
133.982600
20
174.689300
70
0
0
VERTEX
8
Layer 1
10
133.982600
20
174.689300
70
0
0
VERTEX
8
Layer 1
10
131.205224
20
174.861609
70
0
0
VERTEX
8
Layer 1
10
128.420268
20
174.759861
70
0
0
VERTEX
8
Layer 1
10
125.639296
20
174.401045
70
0
0
VERTEX
8
Layer 1
10
122.873870
20
173.802147
70
0
0
VERTEX
8
Layer 1
10
120.135556
20
172.980156
70
0
0
VERTEX
8
Layer 1
10
117.435915
20
171.952059
70
0
0
VERTEX
8
Layer 1
10
114.786513
20
170.734844
70
0
0
VERTEX
8
Layer 1
10
112.198913
20
169.345500
70
0
0
VERTEX
8
Layer 1
10
109.684677
20
167.801013
70
0
0
VERTEX
8
Layer 1
10
107.255371
20
166.118372
70
0
0
VERTEX
8
Layer 1
10
104.922556
20
164.314565
70
0
0
VERTEX
8
Layer 1
10
102.697798
20
162.406578
70
0
0
VERTEX
8
Layer 1
10
98.618705
20
158.346020
70
0
0
VERTEX
8
Layer 1
10
95.110600
20
154.072600
70
0
0
VERTEX
8
Layer 1
10
95.110600
20
154.072600
70
0
0
VERTEX
8
Layer 1
10
89.309588
20
154.310995
70
0
0
VERTEX
8
Layer 1
10
85.448300
20
154.225362
70
0
0
VERTEX
8
Layer 1
10
81.765512
20
153.617298
70
0
0
VERTEX
8
Layer 1
10
76.500000
20
152.288400
70
0
0
VERTEX
8
Layer 1
10
76.500000
20
152.288400
70
0
0
VERTEX
8
Layer 1
10
78.401513
20
161.274175
70
0
0
VERTEX
8
Layer 1
10
79.194670
20
165.711703
70
0
0
VERTEX
8
Layer 1
10
79.783800
20
170.707400
70
0
0
VERTEX
8
Layer 1
10
79.783800
20
170.707400
70
0
0
VERTEX
8
Layer 1
10
80.027188
20
176.111803
70
0
0
VERTEX
8
Layer 1
10
79.928800
20
181.054600
70
0
0
VERTEX
8
Layer 1
10
79.717763
20
185.891272
70
0
0
VERTEX
8
Layer 1
10
79.623200
20
190.977300
70
0
0
VERTEX
8
Layer 1
10
79.623200
20
190.977300
70
0
0
SEQEND
8
Layer 1
0
POLYLINE
8
Layer 1
62
250
70
0
10
0.000000
20
0.000000
66
1
0
VERTEX
8
Layer 1
10
105.429500
20
149.388700
70
0
0
VERTEX
8
Layer 1
10
111.058719
20
152.369802
70
0
0
VERTEX
8
Layer 1
10
116.345525
20
155.248238
70
0
0
VERTEX
8
Layer 1
10
118.909180
20
156.840385
70
0
0
VERTEX
8
Layer 1
10
121.445619
20
158.636580
70
0
0
VERTEX
8
Layer 1
10
123.974305
20
160.713394
70
0
0
VERTEX
8
Layer 1
10
126.514700
20
163.147400
70
0
0
VERTEX
8
Layer 1
10
126.514700
20
163.147400
70
0
0
VERTEX
8
Layer 1
10
128.936395
20
161.965694
70
0
0
VERTEX
8
Layer 1
10
131.885537
20
160.104450
70
0
0
VERTEX
8
Layer 1
10
134.583411
20
158.080006
70
0
0
VERTEX
8
Layer 1
10
135.594773
20
157.167940
70
0
0
VERTEX
8
Layer 1
10
136.251300
20
156.408700
70
0
0
VERTEX
8
Layer 1
10
136.251300
20
156.408700
70
0
0
VERTEX
8
Layer 1
10
126.725300
20
152.271000
70
0
0
VERTEX
8
Layer 1
10
126.725300
20
152.271000
70
0
0
VERTEX
8
Layer 1
10
127.553658
20
151.398164
70
0
0
VERTEX
8
Layer 1
10
128.659361
20
150.520425
70
0
0
VERTEX
8
Layer 1
10
131.372663
20
148.721100
70
0
0
VERTEX
8
Layer 1
10
134.204933
20
146.814750
70
0
0
VERTEX
8
Layer 1
10
135.459346
20
145.803230
70
0
0
VERTEX
8
Layer 1
10
136.495900
20
144.743100
70
0
0
VERTEX
8
Layer 1
10
136.495900
20
144.743100
70
0
0
VERTEX
8
Layer 1
10
134.857613
20
142.153100
70
0
0
VERTEX
8
Layer 1
10
134.033064
20
141.264994
70
0
0
VERTEX
8
Layer 1
10
132.659000
20
140.092900
70
0
0
VERTEX
8
Layer 1
10
132.659000
20
140.092900
70
0
0
VERTEX
8
Layer 1
10
129.191528
20
140.836807
70
0
0
VERTEX
8
Layer 1
10
126.478555
20
141.284114
70
0
0
VERTEX
8
Layer 1
10
124.278307
20
141.466523
70
0
0
VERTEX
8
Layer 1
10
122.349013
20
141.415738
70
0
0
VERTEX
8
Layer 1
10
120.448897
20
141.163460
70
0
0
VERTEX
8
Layer 1
10
118.336189
20
140.741392
70
0
0
VERTEX
8
Layer 1
10
112.505900
20
139.514700
70
0
0
VERTEX
8
Layer 1
10
112.505900
20
139.514700
70
0
0
VERTEX
8
Layer 1
10
111.997648
20
141.217730
70
0
0
VERTEX
8
Layer 1
10
111.280414
20
142.729333
70
0
0
VERTEX
8
Layer 1
10
110.404933
20
144.078254
70
0
0
VERTEX
8
Layer 1
10
109.421937
20
145.293238
70
0
0
VERTEX
8
Layer 1
10
107.336342
20
147.436373
70
0
0
VERTEX
8
Layer 1
10
105.429500
20
149.388700
70
0
0
VERTEX
8
Layer 1
10
105.429500
20
149.388700
70
0
0
SEQEND
8
Layer 1
0
POLYLINE
8
Layer 1
62
250
70
0
10
0.000000
20
0.000000
66
1
0
VERTEX
8
Layer 1
10
140.631200
20
107.391100
70
0
0
VERTEX
8
Layer 1
10
141.796150
20
109.491808
70
0
0
VERTEX
8
Layer 1
10
142.828275
20
111.823637
70
0
0
VERTEX
8
Layer 1
10
143.840937
20
114.141423
70
0
0
VERTEX
8
Layer 1
10
144.947500
20
116.200000
70
0
0
VERTEX
8
Layer 1
10
144.947500
20
116.200000
70
0
0
VERTEX
8
Layer 1
10
148.586745
20
116.094359
70
0
0
VERTEX
8
Layer 1
10
151.028887
20
116.349225
70
0
0
VERTEX
8
Layer 1
10
153.217361
20
117.110378
70
0
0
VERTEX
8
Layer 1
10
156.095600
20
118.523600
70
0
0
VERTEX
8
Layer 1
10
156.095600
20
118.523600
70
0
0
VERTEX
8
Layer 1
10
156.080686
20
120.055882
70
0
0
VERTEX
8
Layer 1
10
155.768288
20
121.468373
70
0
0
VERTEX
8
Layer 1
10
155.196686
20
122.766745
70
0
0
VERTEX
8
Layer 1
10
154.404159
20
123.956669
70
0
0
VERTEX
8
Layer 1
10
153.428988
20
125.043817
70
0
0
VERTEX
8
Layer 1
10
152.309451
20
126.033861
70
0
0
VERTEX
8
Layer 1
10
149.790400
20
127.745325
70
0
0
VERTEX
8
Layer 1
10
147.153243
20
129.136436
70
0
0
VERTEX
8
Layer 1
10
144.704216
20
130.252569
70
0
0
VERTEX
8
Layer 1
10
142.749556
20
131.139098
70
0
0
VERTEX
8
Layer 1
10
141.595500
20
131.841400
70
0
0
VERTEX
8
Layer 1
10
141.595500
20
131.841400
70
0
0
VERTEX
8
Layer 1
10
139.519900
20
134.518800
70
0
0
VERTEX
8
Layer 1
10
139.519900
20
134.518800
70
0
0
VERTEX
8
Layer 1
10
138.372375
20
136.015688
70
0
0
VERTEX
8
Layer 1
10
138.256700
20
137.560800
70
0
0
VERTEX
8
Layer 1
10
138.256700
20
137.560800
70
0
0
VERTEX
8
Layer 1
10
140.295691
20
139.091859
70
0
0
VERTEX
8
Layer 1
10
142.722375
20
141.169275
70
0
0
VERTEX
8
Layer 1
10
144.960772
20
143.439178
70
0
0
VERTEX
8
Layer 1
10
145.829368
20
144.535729
70
0
0
VERTEX
8
Layer 1
10
146.434900
20
145.547700
70
0
0
VERTEX
8
Layer 1
10
146.434900
20
145.547700
70
0
0
VERTEX
8
Layer 1
10
143.055788
20
147.898937
70
0
0
VERTEX
8
Layer 1
10
141.143308
20
149.436277
70
0
0
VERTEX
8
Layer 1
10
139.787900
20
150.704600
70
0
0
VERTEX
8
Layer 1
10
139.787900
20
150.704600
70
0
0
VERTEX
8
Layer 1
10
151.379500
20
154.211400
70
0
0
VERTEX
8
Layer 1
10
151.379500
20
154.211400
70
0
0
VERTEX
8
Layer 1
10
150.343455
20
155.571028
70
0
0
VERTEX
8
Layer 1
10
148.821362
20
157.282050
70
0
0
VERTEX
8
Layer 1
10
146.000800
20
160.133100
70
0
0
VERTEX
8
Layer 1
10
146.000800
20
160.133100
70
0
0
VERTEX
8
Layer 1
10
143.353762
20
162.523988
70
0
0
VERTEX
8
Layer 1
10
142.128902
20
163.764530
70
0
0
VERTEX
8
Layer 1
10
140.917400
20
165.206700
70
0
0
VERTEX
8
Layer 1
10
140.917400
20
165.206700
70
0
0
VERTEX
8
Layer 1
10
144.452712
20
166.153950
70
0
0
VERTEX
8
Layer 1
10
147.911900
20
167.017200
70
0
0
VERTEX
8
Layer 1
10
147.911900
20
167.017200
70
0
0
VERTEX
8
Layer 1
10
152.586100
20
168.494700
70
0
0
VERTEX
8
Layer 1
10
152.586100
20
168.494700
70
0
0
VERTEX
8
Layer 1
10
153.359175
20
168.947525
70
0
0
VERTEX
8
Layer 1
10
153.722300
20
169.320100
70
0
0
VERTEX
8
Layer 1
10
153.722300
20
169.320100
70
0
0
VERTEX
8
Layer 1
10
148.080425
20
175.719863
70
0
0
VERTEX
8
Layer 1
10
145.075803
20
179.501673
70
0
0
VERTEX
8
Layer 1
10
143.999111
20
181.071521
70
0
0
VERTEX
8
Layer 1
10
143.385800
20
182.249600
70
0
0
VERTEX
8
Layer 1
10
143.385800
20
182.249600
70
0
0
VERTEX
8
Layer 1
10
144.203214
20
181.996391
70
0
0
VERTEX
8
Layer 1
10
145.098647
20
181.543030
70
0
0
VERTEX
8
Layer 1
10
147.065784
20
180.132841
70
0
0
VERTEX
8
Layer 1
10
149.171629
20
178.213012
70
0
0
VERTEX
8
Layer 1
10
151.300600
20
175.977525
70
0
0
VERTEX
8
Layer 1
10
155.165591
20
171.335497
70
0
0
VERTEX
8
Layer 1
10
157.736100
20
167.758600
70
0
0
VERTEX
8
Layer 1
10
157.736100
20
167.758500
70
0
0
VERTEX
8
Layer 1
10
159.620246
20
164.615487
70
0
0
VERTEX
8
Layer 1
10
161.299750
20
161.410581
70
0
0
VERTEX
8
Layer 1
10
162.776868
20
158.151596
70
0
0
VERTEX
8
Layer 1
10
164.053857
20
154.846348
70
0
0
VERTEX
8
Layer 1
10
165.132973
20
151.502650
70
0
0
VERTEX
8
Layer 1
10
166.016472
20
148.128316
70
0
0
VERTEX
8
Layer 1
10
166.706610
20
144.731161
70
0
0
VERTEX
8
Layer 1
10
167.205644
20
141.318998
70
0
0
VERTEX
8
Layer 1
10
167.515829
20
137.899643
70
0
0
VERTEX
8
Layer 1
10
167.639423
20
134.480908
70
0
0
VERTEX
8
Layer 1
10
167.578680
20
131.070609
70
0
0
VERTEX
8
Layer 1
10
167.335859
20
127.676559
70
0
0
VERTEX
8
Layer 1
10
166.913213
20
124.306573
70
0
0
VERTEX
8
Layer 1
10
166.313001
20
120.968464
70
0
0
VERTEX
8
Layer 1
10
165.537478
20
117.670048
70
0
0
VERTEX
8
Layer 1
10
164.588900
20
114.419138
70
0
0
VERTEX
8
Layer 1
10
163.469524
20
111.223548
70
0
0
VERTEX
8
Layer 1
10
162.181605
20
108.091093
70
0
0
VERTEX
8
Layer 1
10
160.727401
20
105.029586
70
0
0
VERTEX
8
Layer 1
10
159.109166
20
102.046843
70
0
0
VERTEX
8
Layer 1
10
157.329159
20
99.150677
70
0
0
VERTEX
8
Layer 1
10
155.389633
20
96.348902
70
0
0
VERTEX
8
Layer 1
10
153.292847
20
93.649332
70
0
0
VERTEX
8
Layer 1
10
151.041056
20
91.059783
70
0
0
VERTEX
8
Layer 1
10
148.636517
20
88.588067
70
0
0
VERTEX
8
Layer 1
10
146.081484
20
86.242000
70
0
0
VERTEX
8
Layer 1
10
143.378216
20
84.029394
70
0
0
VERTEX
8
Layer 1
10
140.528968
20
81.958066
70
0
0
VERTEX
8
Layer 1
10
137.535996
20
80.035828
70
0
0
VERTEX
8
Layer 1
10
134.401557
20
78.270495
70
0
0
VERTEX
8
Layer 1
10
131.127906
20
76.669881
70
0
0
VERTEX
8
Layer 1
10
127.717300
20
75.241800
70
0
0
VERTEX
8
Layer 1
10
127.717300
20
75.241800
70
0
0
VERTEX
8
Layer 1
10
123.277511
20
73.724498
70
0
0
VERTEX
8
Layer 1
10
118.745952
20
72.551117
70
0
0
VERTEX
8
Layer 1
10
114.140819
20
71.721656
70
0
0
VERTEX
8
Layer 1
10
109.480312
20
71.236113
70
0
0
VERTEX
8
Layer 1
10
104.782629
20
71.094487
70
0
0
VERTEX
8
Layer 1
10
100.065967
20
71.296777
70
0
0
VERTEX
8
Layer 1
10
95.348525
20
71.842981
70
0
0
VERTEX
8
Layer 1
10
90.648500
20
72.733100
70
0
0
VERTEX
8
Layer 1
10
90.648500
20
72.733100
70
0
0
VERTEX
8
Layer 1
10
88.099548
20
73.315914
70
0
0
VERTEX
8
Layer 1
10
85.243012
20
74.118562
70
0
0
VERTEX
8
Layer 1
10
82.573095
20
75.239305
70
0
0
VERTEX
8
Layer 1
10
81.462557
20
75.949667
70
0
0
VERTEX
8
Layer 1
10
80.584000
20
76.776400
70
0
0
VERTEX
8
Layer 1
10
80.584000
20
76.776400
70
0
0
VERTEX
8
Layer 1
10
82.474609
20
78.302381
70
0
0
VERTEX
8
Layer 1
10
84.553186
20
80.602213
70
0
0
VERTEX
8
Layer 1
10
86.710717
20
83.445288
70
0
0
VERTEX
8
Layer 1
10
88.838188
20
86.601000
70
0
0
VERTEX
8
Layer 1
10
92.566895
20
92.927913
70
0
0
VERTEX
8
Layer 1
10
93.950105
20
95.637900
70
0
0
VERTEX
8
Layer 1
10
94.867200
20
97.738100
70
0
0
VERTEX
8
Layer 1
10
94.867200
20
97.738100
70
0
0
VERTEX
8
Layer 1
10
100.425500
20
95.958600
70
0
0
VERTEX
8
Layer 1
10
100.425500
20
95.958600
70
0
0
VERTEX
8
Layer 1
10
98.821600
20
92.858200
70
0
0
VERTEX
8
Layer 1
10
98.821600
20
92.858200
70
0
0
VERTEX
8
Layer 1
10
99.624316
20
91.279431
70
0
0
VERTEX
8
Layer 1
10
100.576975
20
90.146275
70
0
0
VERTEX
8
Layer 1
10
101.804847
20
89.385831
70
0
0
VERTEX
8
Layer 1
10
103.433200
20
88.925200
70
0
0
VERTEX
8
Layer 1
10
103.433200
20
88.925200
70
0
0
VERTEX
8
Layer 1
10
105.726101
20
88.579190
70
0
0
VERTEX
8
Layer 1
10
107.559922
20
88.438550
70
0
0
VERTEX
8
Layer 1
10
108.999006
20
88.482215
70
0
0
VERTEX
8
Layer 1
10
110.107692
20
88.689116
70
0
0
VERTEX
8
Layer 1
10
110.950322
20
89.038185
70
0
0
VERTEX
8
Layer 1
10
111.591238
20
89.508354
70
0
0
VERTEX
8
Layer 1
10
112.525288
20
90.727725
70
0
0
VERTEX
8
Layer 1
10
113.424570
20
92.178686
70
0
0
VERTEX
8
Layer 1
10
114.022026
20
92.938344
70
0
0
VERTEX
8
Layer 1
10
114.803814
20
93.692697
70
0
0
VERTEX
8
Layer 1
10
115.834274
20
94.420676
70
0
0
VERTEX
8
Layer 1
10
117.177748
20
95.101215
70
0
0
VERTEX
8
Layer 1
10
118.898576
20
95.713246
70
0
0
VERTEX
8
Layer 1
10
121.061100
20
96.235700
70
0
0
VERTEX
8
Layer 1
10
121.061100
20
96.235700
70
0
0
VERTEX
8
Layer 1
10
123.077570
20
96.740177
70
0
0
VERTEX
8
Layer 1
10
125.134363
20
97.380788
70
0
0
VERTEX
8
Layer 1
10
127.057223
20
97.986580
70
0
0
VERTEX
8
Layer 1
10
128.671900
20
98.386600
70
0
0
VERTEX
8
Layer 1
10
128.671900
20
98.386600
70
0
0
VERTEX
8
Layer 1
10
130.405516
20
98.459466
70
0
0
VERTEX
8
Layer 1
10
132.239125
20
98.270375
70
0
0
VERTEX
8
Layer 1
10
134.180997
20
98.074047
70
0
0
VERTEX
8
Layer 1
10
136.239400
20
98.125200
70
0
0
VERTEX
8
Layer 1
10
136.239400
20
98.125200
70
0
0
VERTEX
8
Layer 1
10
137.592597
20
99.364103
70
0
0
VERTEX
8
Layer 1
10
138.412489
20
100.472167
70
0
0
VERTEX
8
Layer 1
10
138.850840
20
101.503288
70
0
0
VERTEX
8
Layer 1
10
139.059413
20
102.511363
70
0
0
VERTEX
8
Layer 1
10
139.394280
20
104.673952
70
0
0
VERTEX
8
Layer 1
10
139.824101
20
105.936258
70
0
0
VERTEX
8
Layer 1
10
140.631200
20
107.391100
70
0
0
VERTEX
8
Layer 1
10
140.631200
20
107.391100
70
0
0
SEQEND
8
Layer 1
0
POLYLINE
8
Layer 1
62
250
70
0
10
0.000000
20
0.000000
66
1
0
VERTEX
8
Layer 1
10
94.950600
20
204.354200
70
0
0
VERTEX
8
Layer 1
10
89.708500
20
203.413500
70
0
0
VERTEX
8
Layer 1
10
89.708500
20
203.413500
70
0
0
VERTEX
8
Layer 1
10
90.054300
20
206.319400
70
0
0
VERTEX
8
Layer 1
10
90.054300
20
206.319400
70
0
0
VERTEX
8
Layer 1
10
92.659312
20
205.384913
70
0
0
VERTEX
8
Layer 1
10
94.950600
20
204.354200
70
0
0
VERTEX
8
Layer 1
10
94.950600
20
204.354200
70
0
0
SEQEND
8
Layer 1
0
POLYLINE
8
Layer 1
62
250
70
0
10
0.000000
20
0.000000
66
1
0
VERTEX
8
Layer 1
10
107.975300
20
207.879500
70
0
0
VERTEX
8
Layer 1
10
108.006575
20
208.042663
70
0
0
VERTEX
8
Layer 1
10
107.975300
20
207.879500
70
0
0
VERTEX
8
Layer 1
10
107.975300
20
207.879500
70
0
0
SEQEND
8
Layer 1
0
POLYLINE
8
Layer 1
62
250
70
0
10
0.000000
20
0.000000
66
1
0
VERTEX
8
Layer 1
10
117.936900
20
203.885900
70
0
0
VERTEX
8
Layer 1
10
111.551600
20
204.759600
70
0
0
VERTEX
8
Layer 1
10
108.294778
20
204.981875
70
0
0
VERTEX
8
Layer 1
10
104.999500
20
205.056700
70
0
0
VERTEX
8
Layer 1
10
104.999500
20
205.056700
70
0
0
VERTEX
8
Layer 1
10
104.461300
20
205.054800
70
0
0
VERTEX
8
Layer 1
10
104.461300
20
205.054800
70
0
0
VERTEX
8
Layer 1
10
104.501200
20
206.889500
70
0
0
VERTEX
8
Layer 1
10
104.501200
20
206.889500
70
0
0
VERTEX
8
Layer 1
10
107.405900
20
208.354300
70
0
0
VERTEX
8
Layer 1
10
107.405900
20
208.354300
70
0
0
VERTEX
8
Layer 1
10
107.975300
20
207.879500
70
0
0
VERTEX
8
Layer 1
10
107.975300
20
207.879500
70
0
0
VERTEX
8
Layer 1
10
108.157900
20
207.136200
70
0
0
VERTEX
8
Layer 1
10
108.157900
20
207.136200
70
0
0
VERTEX
8
Layer 1
10
108.379000
20
205.381200
70
0
0
VERTEX
8
Layer 1
10
108.379000
20
205.381200
70
0
0
VERTEX
8
Layer 1
10
112.969450
20
204.646712
70
0
0
VERTEX
8
Layer 1
10
115.084647
20
204.478205
70
0
0
VERTEX
8
Layer 1
10
116.093621
20
204.550608
70
0
0
VERTEX
8
Layer 1
10
117.068800
20
204.768200
70
0
0
VERTEX
8
Layer 1
10
117.068800
20
204.768200
70
0
0
VERTEX
8
Layer 1
10
117.936900
20
203.885900
70
0
0
VERTEX
8
Layer 1
10
117.936900
20
203.885900
70
0
0
SEQEND
8
Layer 1
0
POLYLINE
8
Layer 1
62
250
70
0
10
0.000000
20
0.000000
66
1
0
VERTEX
8
Layer 1
10
129.914500
20
200.583300
70
0
0
VERTEX
8
Layer 1
10
130.367994
20
201.451715
70
0
0
VERTEX
8
Layer 1
10
130.545767
20
202.034902
70
0
0
VERTEX
8
Layer 1
10
130.521713
20
202.641788
70
0
0
VERTEX
8
Layer 1
10
130.543663
20
202.813586
70
0
0
VERTEX
8
Layer 1
10
130.737452
20
202.996355
70
0
0
VERTEX
8
Layer 1
10
132.088100
20
203.691000
70
0
0
VERTEX
8
Layer 1
10
132.088100
20
203.691000
70
0
0
VERTEX
8
Layer 1
10
132.417863
20
203.235950
70
0
0
VERTEX
8
Layer 1
10
132.800200
20
202.351600
70
0
0
VERTEX
8
Layer 1
10
132.800200
20
202.351600
70
0
0
VERTEX
8
Layer 1
10
133.010600
20
201.832800
70
0
0
VERTEX
8
Layer 1
10
133.010600
20
201.832800
70
0
0
VERTEX
8
Layer 1
10
138.293900
20
200.131400
70
0
0
VERTEX
8
Layer 1
10
138.293900
20
200.131400
70
0
0
VERTEX
8
Layer 1
10
138.544767
20
198.598105
70
0
0
VERTEX
8
Layer 1
10
138.787563
20
197.830737
70
0
0
VERTEX
8
Layer 1
10
139.437927
20
197.404302
70
0
0
VERTEX
8
Layer 1
10
140.911500
20
196.893800
70
0
0
VERTEX
8
Layer 1
10
140.911500
20
196.893800
70
0
0
VERTEX
8
Layer 1
10
143.031075
20
196.244014
70
0
0
VERTEX
8
Layer 1
10
144.592163
20
196.024228
70
0
0
VERTEX
8
Layer 1
10
145.208818
20
196.099315
70
0
0
VERTEX
8
Layer 1
10
145.740506
20
196.310379
70
0
0
VERTEX
8
Layer 1
10
146.621850
20
197.178400
70
0
0
VERTEX
8
Layer 1
10
147.381937
20
198.704228
70
0
0
VERTEX
8
Layer 1
10
148.166513
20
200.963797
70
0
0
VERTEX
8
Layer 1
10
150.392100
20
207.987900
70
0
0
VERTEX
8
Layer 1
10
150.392100
20
207.987900
70
0
0
VERTEX
8
Layer 1
10
152.681875
20
214.483425
70
0
0
VERTEX
8
Layer 1
10
153.760575
20
217.764853
70
0
0
VERTEX
8
Layer 1
10
154.602800
20
220.938900
70
0
0
VERTEX
8
Layer 1
10
154.602800
20
220.938900
70
0
0
VERTEX
8
Layer 1
10
148.963263
20
222.082675
70
0
0
VERTEX
8
Layer 1
10
144.550800
20
223.063700
70
0
0
VERTEX
8
Layer 1
10
144.550800
20
223.063700
70
0
0
VERTEX
8
Layer 1
10
141.928356
20
223.916592
70
0
0
VERTEX
8
Layer 1
10
138.956375
20
224.670812
70
0
0
VERTEX
8
Layer 1
10
135.996356
20
225.057102
70
0
0
VERTEX
8
Layer 1
10
134.633802
20
225.028128
70
0
0
VERTEX
8
Layer 1
10
133.409800
20
224.806200
70
0
0
VERTEX
8
Layer 1
10
133.409800
20
224.806200
70
0
0
VERTEX
8
Layer 1
10
133.029800
20
219.790500
70
0
0
VERTEX
8
Layer 1
10
133.029800
20
219.790500
70
0
0
VERTEX
8
Layer 1
10
128.087600
20
218.191500
70
0
0
VERTEX
8
Layer 1
10
128.087600
20
218.191500
70
0
0
VERTEX
8
Layer 1
10
126.655600
20
227.224200
70
0
0
VERTEX
8
Layer 1
10
126.655600
20
227.224200
70
0
0
VERTEX
8
Layer 1
10
123.513266
20
227.088659
70
0
0
VERTEX
8
Layer 1
10
118.698000
20
226.672525
70
0
0
VERTEX
8
Layer 1
10
114.058609
20
226.007878
70
0
0
VERTEX
8
Layer 1
10
112.382619
20
225.592388
70
0
0
VERTEX
8
Layer 1
10
111.443900
20
225.126800
70
0
0
VERTEX
8
Layer 1
10
111.443900
20
225.126800
70
0
0
VERTEX
8
Layer 1
10
110.241800
20
223.451200
70
0
0
VERTEX
8
Layer 1
10
110.241800
20
223.451200
70
0
0
VERTEX
8
Layer 1
10
105.905800
20
225.968900
70
0
0
VERTEX
8
Layer 1
10
105.905800
20
225.968900
70
0
0
VERTEX
8
Layer 1
10
110.480400
20
228.165100
70
0
0
VERTEX
8
Layer 1
10
110.480400
20
228.165100
70
0
0
VERTEX
8
Layer 1
10
109.645861
20
230.053789
70
0
0
VERTEX
8
Layer 1
10
108.736537
20
231.552788
70
0
0
VERTEX
8
Layer 1
10
106.841700
20
234.482000
70
0
0
VERTEX
8
Layer 1
10
106.841700
20
234.482000
70
0
0
VERTEX
8
Layer 1
10
105.992300
20
234.482000
70
0
0
VERTEX
8
Layer 1
10
105.992300
20
234.482000
70
0
0
VERTEX
8
Layer 1
10
102.122187
20
230.614925
70
0
0
VERTEX
8
Layer 1
10
100.146730
20
228.456978
70
0
0
VERTEX
8
Layer 1
10
98.550800
20
226.255100
70
0
0
VERTEX
8
Layer 1
10
98.550800
20
226.255100
70
0
0
VERTEX
8
Layer 1
10
97.591544
20
224.433711
70
0
0
VERTEX
8
Layer 1
10
97.559513
20
224.149833
70
0
0
VERTEX
8
Layer 1
10
97.695150
20
224.087713
70
0
0
VERTEX
8
Layer 1
10
98.077231
20
224.040383
70
0
0
VERTEX
8
Layer 1
10
98.127579
20
223.760993
70
0
0
VERTEX
8
Layer 1
10
97.953400
20
223.115000
70
0
0
VERTEX
8
Layer 1
10
97.953400
20
223.115000
70
0
0
VERTEX
8
Layer 1
10
97.124551
20
223.436957
70
0
0
VERTEX
8
Layer 1
10
96.376873
20
223.872832
70
0
0
VERTEX
8
Layer 1
10
95.005516
20
224.958250
70
0
0
VERTEX
8
Layer 1
10
93.600300
20
226.115087
70
0
0
VERTEX
8
Layer 1
10
91.922200
20
227.087175
70
0
0
VERTEX
8
Layer 1
10
90.906122
20
227.423886
70
0
0
VERTEX
8
Layer 1
10
89.732187
20
227.618348
70
0
0
VERTEX
8
Layer 1
10
88.370517
20
227.638538
70
0
0
VERTEX
8
Layer 1
10
86.791234
20
227.452438
70
0
0
VERTEX
8
Layer 1
10
84.964460
20
227.028024
70
0
0
VERTEX
8
Layer 1
10
82.860314
20
226.333277
70
0
0
VERTEX
8
Layer 1
10
80.448921
20
225.336176
70
0
0
VERTEX
8
Layer 1
10
77.700400
20
224.004700
70
0
0
VERTEX
8
Layer 1
10
77.700400
20
224.004700
70
0
0
VERTEX
8
Layer 1
10
78.697600
20
218.629400
70
0
0
VERTEX
8
Layer 1
10
78.697600
20
218.629400
70
0
0
VERTEX
8
Layer 1
10
79.068000
20
218.316800
70
0
0
VERTEX
8
Layer 1
10
79.068000
20
218.316800
70
0
0
VERTEX
8
Layer 1
10
79.440300
20
217.994700
70
0
0
VERTEX
8
Layer 1
10
79.440300
20
217.994700
70
0
0
VERTEX
8
Layer 1
10
73.426300
20
216.772400
70
0
0
VERTEX
8
Layer 1
10
73.426300
20
216.772400
70
0
0
VERTEX
8
Layer 1
10
73.317008
20
219.199694
70
0
0
VERTEX
8
Layer 1
10
72.750491
20
221.273061
70
0
0
VERTEX
8
Layer 1
10
71.762421
20
222.995557
70
0
0
VERTEX
8
Layer 1
10
70.388475
20
224.370238
70
0
0
VERTEX
8
Layer 1
10
68.664325
20
225.400157
70
0
0
VERTEX
8
Layer 1
10
66.625647
20
226.088370
70
0
0
VERTEX
8
Layer 1
10
64.308114
20
226.437933
70
0
0
VERTEX
8
Layer 1
10
61.747400
20
226.451900
70
0
0
VERTEX
8
Layer 1
10
61.747400
20
226.451900
70
0
0
VERTEX
8
Layer 1
10
59.340218
20
226.191944
70
0
0
VERTEX
8
Layer 1
10
57.115453
20
225.719194
70
0
0
VERTEX
8
Layer 1
10
55.060586
20
225.064803
70
0
0
VERTEX
8
Layer 1
10
53.163100
20
224.259925
70
0
0
VERTEX
8
Layer 1
10
51.410476
20
223.335712
70
0
0
VERTEX
8
Layer 1
10
49.790197
20
222.323319
70
0
0
VERTEX
8
Layer 1
10
46.896600
20
220.158600
70
0
0
VERTEX
8
Layer 1
10
46.896600
20
220.158600
70
0
0
VERTEX
8
Layer 1
10
51.145900
20
212.351400
70
0
0
VERTEX
8
Layer 1
10
51.145900
20
212.351400
70
0
0
VERTEX
8
Layer 1
10
53.526500
20
212.152100
70
0
0
VERTEX
8
Layer 1
10
53.526500
20
212.152100
70
0
0
VERTEX
8
Layer 1
10
61.134300
20
195.009700
70
0
0
VERTEX
8
Layer 1
10
61.134300
20
195.009700
70
0
0
VERTEX
8
Layer 1
10
70.276200
20
198.005000
70
0
0
VERTEX
8
Layer 1
10
70.276200
20
198.005000
70
0
0
VERTEX
8
Layer 1
10
69.296800
20
203.145700
70
0
0
VERTEX
8
Layer 1
10
69.296800
20
203.145700
70
0
0
VERTEX
8
Layer 1
10
71.804052
20
201.493311
70
0
0
VERTEX
8
Layer 1
10
73.006844
20
200.903556
70
0
0
VERTEX
8
Layer 1
10
74.232112
20
200.543138
70
0
0
VERTEX
8
Layer 1
10
75.522129
20
200.465840
70
0
0
VERTEX
8
Layer 1
10
76.919167
20
200.725445
70
0
0
VERTEX
8
Layer 1
10
78.465500
20
201.375738
70
0
0
VERTEX
8
Layer 1
10
80.203400
20
202.470500
70
0
0
VERTEX
8
Layer 1
10
80.203400
20
202.470500
70
0
0
VERTEX
8
Layer 1
10
80.381600
20
202.304463
70
0
0
VERTEX
8
Layer 1
10
80.514200
20
202.066800
70
0
0
VERTEX
8
Layer 1
10
80.514200
20
202.066800
70
0
0
VERTEX
8
Layer 1
10
80.658513
20
201.809338
70
0
0
VERTEX
8
Layer 1
10
80.811600
20
201.662800
70
0
0
VERTEX
8
Layer 1
10
80.811600
20
201.662800
70
0
0
VERTEX
8
Layer 1
10
81.222500
20
200.996700
70
0
0
VERTEX
8
Layer 1
10
81.222500
20
200.996600
70
0
0
VERTEX
8
Layer 1
10
76.123804
20
198.968410
70
0
0
VERTEX
8
Layer 1
10
71.226739
20
196.568038
70
0
0
VERTEX
8
Layer 1
10
66.548873
20
193.813055
70
0
0
VERTEX
8
Layer 1
10
62.107773
20
190.721027
70
0
0
VERTEX
8
Layer 1
10
57.921008
20
187.309522
70
0
0
VERTEX
8
Layer 1
10
54.006143
20
183.596111
70
0
0
VERTEX
8
Layer 1
10
50.380747
20
179.598360
70
0
0
VERTEX
8
Layer 1
10
47.062387
20
175.333838
70
0
0
VERTEX
8
Layer 1
10
44.068631
20
170.820113
70
0
0
VERTEX
8
Layer 1
10
41.417046
20
166.074753
70
0
0
VERTEX
8
Layer 1
10
39.125199
20
161.115328
70
0
0
VERTEX
8
Layer 1
10
37.210658
20
155.959405
70
0
0
VERTEX
8
Layer 1
10
35.690990
20
150.624552
70
0
0
VERTEX
8
Layer 1
10
34.583763
20
145.128338
70
0
0
VERTEX
8
Layer 1
10
33.906544
20
139.488331
70
0
0
VERTEX
8
Layer 1
10
33.676900
20
133.722100
70
0
0
VERTEX
8
Layer 1
10
33.676900
20
133.722000
70
0
0
VERTEX
8
Layer 1
10
33.769705
20
130.051106
70
0
0
VERTEX
8
Layer 1
10
34.045133
20
126.428404
70
0
0
VERTEX
8
Layer 1
10
34.498701
20
122.858377
70
0
0
VERTEX
8
Layer 1
10
35.125929
20
119.345507
70
0
0
VERTEX
8
Layer 1
10
35.922336
20
115.894276
70
0
0
VERTEX
8
Layer 1
10
36.883439
20
112.509165
70
0
0
VERTEX
8
Layer 1
10
38.004757
20
109.194657
70
0
0
VERTEX
8
Layer 1
10
39.281809
20
105.955233
70
0
0
VERTEX
8
Layer 1
10
40.710114
20
102.795375
70
0
0
VERTEX
8
Layer 1
10
42.285190
20
99.719566
70
0
0
VERTEX
8
Layer 1
10
44.002555
20
96.732287
70
0
0
VERTEX
8
Layer 1
10
45.857729
20
93.838020
70
0
0
VERTEX
8
Layer 1
10
47.846229
20
91.041247
70
0
0
VERTEX
8
Layer 1
10
49.963574
20
88.346450
70
0
0
VERTEX
8
Layer 1
10
52.205283
20
85.758112
70
0
0
VERTEX
8
Layer 1
10
54.566875
20
83.280713
70
0
0
VERTEX
8
Layer 1
10
57.043868
20
80.918735
70
0
0
VERTEX
8
Layer 1
10
59.631780
20
78.676662
70
0
0
VERTEX
8
Layer 1
10
62.326130
20
76.558974
70
0
0
VERTEX
8
Layer 1
10
65.122437
20
74.570153
70
0
0
VERTEX
8
Layer 1
10
68.016219
20
72.714682
70
0
0
VERTEX
8
Layer 1
10
71.002995
20
70.997043
70
0
0
VERTEX
8
Layer 1
10
74.078284
20
69.421717
70
0
0
VERTEX
8
Layer 1
10
77.237603
20
67.993186
70
0
0
VERTEX
8
Layer 1
10
80.476472
20
66.715932
70
0
0
VERTEX
8
Layer 1
10
83.790409
20
65.594438
70
0
0
VERTEX
8
Layer 1
10
87.174933
20
64.633184
70
0
0
VERTEX
8
Layer 1
10
90.625561
20
63.836654
70
0
0
VERTEX
8
Layer 1
10
94.137814
20
63.209328
70
0
0
VERTEX
8
Layer 1
10
97.707209
20
62.755689
70
0
0
VERTEX
8
Layer 1
10
101.329265
20
62.480219
70
0
0
VERTEX
8
Layer 1
10
104.999500
20
62.387400
70
0
0
VERTEX
8
Layer 1
10
104.999600
20
62.387400
70
0
0
VERTEX
8
Layer 1
10
108.669863
20
62.480220
70
0
0
VERTEX
8
Layer 1
10
112.291944
20
62.755690
70
0
0
VERTEX
8
Layer 1
10
115.861363
20
63.209331
70
0
0
VERTEX
8
Layer 1
10
119.373638
20
63.836658
70
0
0
VERTEX
8
Layer 1
10
122.824287
20
64.633191
70
0
0
VERTEX
8
Layer 1
10
126.208830
20
65.594447
70
0
0
VERTEX
8
Layer 1
10
129.522785
20
66.715945
70
0
0
VERTEX
8
Layer 1
10
132.761670
20
67.993202
70
0
0
VERTEX
8
Layer 1
10
135.921005
20
69.421736
70
0
0
VERTEX
8
Layer 1
10
138.996307
20
70.997066
70
0
0
VERTEX
8
Layer 1
10
141.983096
20
72.714710
70
0
0
VERTEX
8
Layer 1
10
144.876890
20
74.570185
70
0
0
VERTEX
8
Layer 1
10
147.673207
20
76.559010
70
0
0
VERTEX
8
Layer 1
10
150.367567
20
78.676702
70
0
0
VERTEX
8
Layer 1
10
152.955487
20
80.918781
70
0
0
VERTEX
8
Layer 1
10
155.432487
20
83.280763
70
0
0
VERTEX
8
Layer 1
10
157.794086
20
85.758166
70
0
0
VERTEX
8
Layer 1
10
160.035801
20
88.346510
70
0
0
VERTEX
8
Layer 1
10
162.153151
20
91.041311
70
0
0
VERTEX
8
Layer 1
10
164.141656
20
93.838088
70
0
0
VERTEX
8
Layer 1
10
165.996833
20
96.732360
70
0
0
VERTEX
8
Layer 1
10
167.714201
20
99.719643
70
0
0
VERTEX
8
Layer 1
10
169.289279
20
102.795456
70
0
0
VERTEX
8
Layer 1
10
170.717586
20
105.955317
70
0
0
VERTEX
8
Layer 1
10
171.994640
20
109.194744
70
0
0
VERTEX
8
Layer 1
10
173.115959
20
112.509256
70
0
0
VERTEX
8
Layer 1
10
174.077063
20
115.894369
70
0
0
VERTEX
8
Layer 1
10
174.873470
20
119.345603
70
0
0
VERTEX
8
Layer 1
10
175.500699
20
122.858475
70
0
0
VERTEX
8
Layer 1
10
175.954267
20
126.428503
70
0
0
VERTEX
8
Layer 1
10
176.229695
20
130.051205
70
0
0
VERTEX
8
Layer 1
10
176.322500
20
133.722100
70
0
0
VERTEX
8
Layer 1
10
176.322500
20
133.722100
70
0
0
VERTEX
8
Layer 1
10
176.099090
20
139.409888
70
0
0
VERTEX
8
Layer 1
10
175.440094
20
144.975129
70
0
0
VERTEX
8
Layer 1
10
174.362363
20
150.400970
70
0
0
VERTEX
8
Layer 1
10
172.882750
20
155.670558
70
0
0
VERTEX
8
Layer 1
10
171.018105
20
160.767039
70
0
0
VERTEX
8
Layer 1
10
168.785281
20
165.673561
70
0
0
VERTEX
8
Layer 1
10
166.201129
20
170.373270
70
0
0
VERTEX
8
Layer 1
10
163.282500
20
174.849313
70
0
0
VERTEX
8
Layer 1
10
160.046246
20
179.084836
70
0
0
VERTEX
8
Layer 1
10
156.509219
20
183.062988
70
0
0
VERTEX
8
Layer 1
10
152.688270
20
186.766914
70
0
0
VERTEX
8
Layer 1
10
148.600250
20
190.179761
70
0
0
VERTEX
8
Layer 1
10
144.262012
20
193.284676
70
0
0
VERTEX
8
Layer 1
10
139.690406
20
196.064807
70
0
0
VERTEX
8
Layer 1
10
134.902285
20
198.503299
70
0
0
VERTEX
8
Layer 1
10
129.914500
20
200.583300
70
0
0
VERTEX
8
Layer 1
10
129.914500
20
200.583300
70
0
0
SEQEND
8
Layer 1
0
POLYLINE
8
Layer 1
62
250
70
0
10
0.000000
20
0.000000
66
1
0
VERTEX
8
Layer 1
10
103.534000
20
138.535700
70
0
0
VERTEX
8
Layer 1
10
104.202541
20
137.388748
70
0
0
VERTEX
8
Layer 1
10
104.694925
20
136.663662
70
0
0
VERTEX
8
Layer 1
10
105.461772
20
136.234920
70
0
0
VERTEX
8
Layer 1
10
106.953700
20
135.977000
70
0
0
VERTEX
8
Layer 1
10
106.953700
20
135.977000
70
0
0
VERTEX
8
Layer 1
10
107.890700
20
139.081000
70
0
0
VERTEX
8
Layer 1
10
107.890700
20
139.081000
70
0
0
VERTEX
8
Layer 1
10
108.946979
20
137.021699
70
0
0
VERTEX
8
Layer 1
10
109.554123
20
135.226484
70
0
0
VERTEX
8
Layer 1
10
109.770415
20
133.696628
70
0
0
VERTEX
8
Layer 1
10
109.654141
20
132.433405
70
0
0
VERTEX
8
Layer 1
10
109.263583
20
131.438088
70
0
0
VERTEX
8
Layer 1
10
108.657025
20
130.711951
70
0
0
VERTEX
8
Layer 1
10
107.892753
20
130.256268
70
0
0
VERTEX
8
Layer 1
10
107.029050
20
130.072312
70
0
0
VERTEX
8
Layer 1
10
106.124200
20
130.161358
70
0
0
VERTEX
8
Layer 1
10
105.236487
20
130.524679
70
0
0
VERTEX
8
Layer 1
10
104.424196
20
131.163548
70
0
0
VERTEX
8
Layer 1
10
103.745609
20
132.079239
70
0
0
VERTEX
8
Layer 1
10
103.259013
20
133.273026
70
0
0
VERTEX
8
Layer 1
10
103.022689
20
134.746183
70
0
0
VERTEX
8
Layer 1
10
103.094924
20
136.499983
70
0
0
VERTEX
8
Layer 1
10
103.534000
20
138.535700
70
0
0
VERTEX
8
Layer 1
10
103.534000
20
138.535700
70
0
0
SEQEND
8
Layer 1
0
POLYLINE
8
Layer 1
62
250
70
0
10
0.000000
20
0.000000
66
1
0
VERTEX
8
Layer 1
10
102.558100
20
204.602500
70
0
0
VERTEX
8
Layer 1
10
88.249400
20
211.486800
70
0
0
VERTEX
8
Layer 1
10
88.249400
20
211.486800
70
0
0
VERTEX
8
Layer 1
10
88.053900
20
204.130500
70
0
0
VERTEX
8
Layer 1
10
88.053900
20
204.130500
70
0
0
VERTEX
8
Layer 1
10
84.430100
20
203.548200
70
0
0
VERTEX
8
Layer 1
10
84.430100
20
203.548200
70
0
0
VERTEX
8
Layer 1
10
84.462684
20
205.032190
70
0
0
VERTEX
8
Layer 1
10
84.620386
20
206.450686
70
0
0
VERTEX
8
Layer 1
10
85.055238
20
209.142338
70
0
0
VERTEX
8
Layer 1
10
85.204435
20
210.441066
70
0
0
VERTEX
8
Layer 1
10
85.222845
20
211.725445
70
0
0
VERTEX
8
Layer 1
10
85.046492
20
213.008261
70
0
0
VERTEX
8
Layer 1
10
84.611400
20
214.302300
70
0
0
VERTEX
8
Layer 1
10
84.611400
20
214.302300
70
0
0
VERTEX
8
Layer 1
10
83.647601
20
216.625554
70
0
0
VERTEX
8
Layer 1
10
83.243253
20
217.971584
70
0
0
VERTEX
8
Layer 1
10
83.197054
20
218.656504
70
0
0
VERTEX
8
Layer 1
10
83.307700
20
218.996425
70
0
0
VERTEX
8
Layer 1
10
83.373890
20
219.307462
70
0
0
VERTEX
8
Layer 1
10
83.194322
20
219.905728
70
0
0
VERTEX
8
Layer 1
10
81.292700
20
223.228400
70
0
0
VERTEX
8
Layer 1
10
81.292700
20
223.228400
70
0
0
VERTEX
8
Layer 1
10
87.027100
20
225.137700
70
0
0
VERTEX
8
Layer 1
10
87.027100
20
225.137700
70
0
0
VERTEX
8
Layer 1
10
87.439100
20
219.601900
70
0
0
VERTEX
8
Layer 1
10
87.439100
20
219.601900
70
0
0
VERTEX
8
Layer 1
10
88.668102
20
220.751739
70
0
0
VERTEX
8
Layer 1
10
89.739238
20
222.042063
70
0
0
VERTEX
8
Layer 1
10
91.809200
20
224.764600
70
0
0
VERTEX
8
Layer 1
10
91.809200
20
224.764600
70
0
0
VERTEX
8
Layer 1
10
95.915100
20
221.552600
70
0
0
VERTEX
8
Layer 1
10
95.915100
20
221.552600
70
0
0
VERTEX
8
Layer 1
10
95.238244
20
220.388780
70
0
0
VERTEX
8
Layer 1
10
94.527805
20
219.480500
70
0
0
VERTEX
8
Layer 1
10
93.060513
20
218.077475
70
0
0
VERTEX
8
Layer 1
10
91.621889
20
216.637363
70
0
0
VERTEX
8
Layer 1
10
90.947286
20
215.682723
70
0
0
VERTEX
8
Layer 1
10
90.320600
20
214.454000
70
0
0
VERTEX
8
Layer 1
10
90.320600
20
214.454000
70
0
0
VERTEX
8
Layer 1
10
92.099955
20
213.967600
70
0
0
VERTEX
8
Layer 1
10
93.657787
20
213.406350
70
0
0
VERTEX
8
Layer 1
10
95.040327
20
212.669750
70
0
0
VERTEX
8
Layer 1
10
96.293800
20
211.657300
70
0
0
VERTEX
8
Layer 1
10
96.293800
20
211.657300
70
0
0
VERTEX
8
Layer 1
10
97.799697
20
210.132652
70
0
0
VERTEX
8
Layer 1
10
98.728300
20
209.343013
70
0
0
VERTEX
8
Layer 1
10
99.930053
20
208.836292
70
0
0
VERTEX
8
Layer 1
10
102.255400
20
208.160400
70
0
0
VERTEX
8
Layer 1
10
102.255400
20
208.160400
70
0
0
VERTEX
8
Layer 1
10
102.558100
20
204.602500
70
0
0
VERTEX
8
Layer 1
10
102.558100
20
204.602500
70
0
0
SEQEND
8
Layer 1
0
POLYLINE
8
Layer 1
62
250
70
0
10
0.000000
20
0.000000
66
1
0
VERTEX
8
Layer 1
10
112.083500
20
207.891400
70
0
0
VERTEX
8
Layer 1
10
112.407850
20
210.507775
70
0
0
VERTEX
8
Layer 1
10
113.336400
20
212.352400
70
0
0
VERTEX
8
Layer 1
10
113.336400
20
212.352400
70
0
0
VERTEX
8
Layer 1
10
113.715689
20
213.497915
70
0
0
VERTEX
8
Layer 1
10
113.803764
20
214.613448
70
0
0
VERTEX
8
Layer 1
10
113.592163
20
217.011137
70
0
0
VERTEX
8
Layer 1
10
113.535432
20
218.421579
70
0
0
VERTEX
8
Layer 1
10
113.673380
20
220.058608
70
0
0
VERTEX
8
Layer 1
10
114.127478
20
221.986367
70
0
0
VERTEX
8
Layer 1
10
115.019200
20
224.269000
70
0
0
VERTEX
8
Layer 1
10
115.019200
20
224.269000
70
0
0
VERTEX
8
Layer 1
10
119.252100
20
224.331700
70
0
0
VERTEX
8
Layer 1
10
119.252100
20
224.331700
70
0
0
VERTEX
8
Layer 1
10
120.678900
20
219.404500
70
0
0
VERTEX
8
Layer 1
10
120.678900
20
219.404500
70
0
0
VERTEX
8
Layer 1
10
122.047500
20
225.323900
70
0
0
VERTEX
8
Layer 1
10
122.047500
20
225.323900
70
0
0
VERTEX
8
Layer 1
10
124.842300
20
225.178900
70
0
0
VERTEX
8
Layer 1
10
124.842300
20
225.178900
70
0
0
VERTEX
8
Layer 1
10
125.915425
20
221.125977
70
0
0
VERTEX
8
Layer 1
10
126.148770
20
219.661603
70
0
0
VERTEX
8
Layer 1
10
126.204425
20
218.447587
70
0
0
VERTEX
8
Layer 1
10
126.100734
20
217.390655
70
0
0
VERTEX
8
Layer 1
10
125.856038
20
216.397530
70
0
0
VERTEX
8
Layer 1
10
125.017000
20
214.229600
70
0
0
VERTEX
8
Layer 1
10
125.017000
20
214.229600
70
0
0
VERTEX
8
Layer 1
10
124.298779
20
212.071648
70
0
0
VERTEX
8
Layer 1
10
124.100595
20
210.363066
70
0
0
VERTEX
8
Layer 1
10
124.323604
20
208.998213
70
0
0
VERTEX
8
Layer 1
10
124.868963
20
207.871450
70
0
0
VERTEX
8
Layer 1
10
125.637825
20
206.877137
70
0
0
VERTEX
8
Layer 1
10
126.531348
20
205.909634
70
0
0
VERTEX
8
Layer 1
10
127.450688
20
204.863302
70
0
0
VERTEX
8
Layer 1
10
128.297000
20
203.632500
70
0
0
VERTEX
8
Layer 1
10
128.297000
20
203.632500
70
0
0
VERTEX
8
Layer 1
10
126.106788
20
204.000659
70
0
0
VERTEX
8
Layer 1
10
124.632175
20
204.420606
70
0
0
VERTEX
8
Layer 1
10
123.719480
20
204.972544
70
0
0
VERTEX
8
Layer 1
10
123.215025
20
205.736675
70
0
0
VERTEX
8
Layer 1
10
122.965129
20
206.793203
70
0
0
VERTEX
8
Layer 1
10
122.816113
20
208.222331
70
0
0
VERTEX
8
Layer 1
10
122.614296
20
210.104263
70
0
0
VERTEX
8
Layer 1
10
122.206000
20
212.519200
70
0
0
VERTEX
8
Layer 1
10
122.206000
20
212.519200
70
0
0
VERTEX
8
Layer 1
10
120.209800
20
208.707600
70
0
0
VERTEX
8
Layer 1
10
120.209800
20
208.707600
70
0
0
VERTEX
8
Layer 1
10
117.491700
20
213.389500
70
0
0
VERTEX
8
Layer 1
10
117.491700
20
213.389500
70
0
0
VERTEX
8
Layer 1
10
116.352800
20
207.340400
70
0
0
VERTEX
8
Layer 1
10
116.352800
20
207.340400
70
0
0
VERTEX
8
Layer 1
10
112.083500
20
207.891400
70
0
0
VERTEX
8
Layer 1
10
112.083500
20
207.891400
70
0
0
SEQEND
8
Layer 1
0
POLYLINE
8
Layer 1
62
250
70
0
10
0.000000
20
0.000000
66
1
0
VERTEX
8
Layer 1
10
137.600700
20
219.970100
70
0
0
VERTEX
8
Layer 1
10
136.670700
20
223.005300
70
0
0
VERTEX
8
Layer 1
10
136.670700
20
223.005300
70
0
0
VERTEX
8
Layer 1
10
142.716200
20
221.829600
70
0
0
VERTEX
8
Layer 1
10
142.716200
20
221.829600
70
0
0
VERTEX
8
Layer 1
10
145.166700
20
212.120000
70
0
0
VERTEX
8
Layer 1
10
145.166700
20
212.120000
70
0
0
VERTEX
8
Layer 1
10
147.493700
20
220.542200
70
0
0
VERTEX
8
Layer 1
10
147.493700
20
220.542200
70
0
0
VERTEX
8
Layer 1
10
151.734200
20
219.800600
70
0
0
VERTEX
8
Layer 1
10
151.734200
20
219.800600
70
0
0
VERTEX
8
Layer 1
10
151.542762
20
218.309329
70
0
0
VERTEX
8
Layer 1
10
150.942248
20
215.833388
70
0
0
VERTEX
8
Layer 1
10
148.964762
20
209.279425
70
0
0
VERTEX
8
Layer 1
10
146.703270
20
202.842575
70
0
0
VERTEX
8
Layer 1
10
145.747749
20
200.513024
70
0
0
VERTEX
8
Layer 1
10
145.059300
20
199.226700
70
0
0
VERTEX
8
Layer 1
10
145.059300
20
199.226700
70
0
0
VERTEX
8
Layer 1
10
143.555522
20
199.551272
70
0
0
VERTEX
8
Layer 1
10
142.625400
20
199.916080
70
0
0
VERTEX
8
Layer 1
10
142.135341
20
200.458401
70
0
0
VERTEX
8
Layer 1
10
141.951750
20
201.315512
70
0
0
VERTEX
8
Layer 1
10
141.969600
20
204.523214
70
0
0
VERTEX
8
Layer 1
10
141.903853
20
207.148358
70
0
0
VERTEX
8
Layer 1
10
141.610200
20
210.637400
70
0
0
VERTEX
8
Layer 1
10
141.610200
20
210.637400
70
0
0
VERTEX
8
Layer 1
10
139.851700
20
203.024400
70
0
0
VERTEX
8
Layer 1
10
139.851700
20
203.024400
70
0
0
VERTEX
8
Layer 1
10
136.606700
20
203.438700
70
0
0
VERTEX
8
Layer 1
10
136.606700
20
203.438700
70
0
0
VERTEX
8
Layer 1
10
136.594481
20
204.604058
70
0
0
VERTEX
8
Layer 1
10
136.715969
20
205.556500
70
0
0
VERTEX
8
Layer 1
10
137.258855
20
206.971552
70
0
0
VERTEX
8
Layer 1
10
138.032935
20
207.981680
70
0
0
VERTEX
8
Layer 1
10
138.835787
20
208.884713
70
0
0
VERTEX
8
Layer 1
10
139.464992
20
209.978474
70
0
0
VERTEX
8
Layer 1
10
139.651219
20
210.689950
70
0
0
VERTEX
8
Layer 1
10
139.718127
20
211.560792
70
0
0
VERTEX
8
Layer 1
10
139.392770
20
213.929492
70
0
0
VERTEX
8
Layer 1
10
138.286500
20
217.382400
70
0
0
VERTEX
8
Layer 1
10
138.286500
20
217.382400
70
0
0
VERTEX
8
Layer 1
10
137.898975
20
218.606388
70
0
0
VERTEX
8
Layer 1
10
137.600700
20
219.970100
70
0
0
VERTEX
8
Layer 1
10
137.600700
20
219.970100
70
0
0
SEQEND
8
Layer 1
0
POLYLINE
8
Layer 1
62
250
70
0
10
0.000000
20
0.000000
66
1
0
VERTEX
8
Layer 1
10
122.298700
20
161.687500
70
0
0
VERTEX
8
Layer 1
10
123.043302
20
164.840889
70
0
0
VERTEX
8
Layer 1
10
123.313688
20
166.826613
70
0
0
VERTEX
8
Layer 1
10
123.234855
20
168.834105
70
0
0
VERTEX
8
Layer 1
10
122.931800
20
172.052800
70
0
0
VERTEX
8
Layer 1
10
122.931800
20
172.052800
70
0
0
VERTEX
8
Layer 1
10
132.016900
20
173.325800
70
0
0
VERTEX
8
Layer 1
10
132.016900
20
173.325800
70
0
0
VERTEX
8
Layer 1
10
131.942557
20
172.194248
70
0
0
VERTEX
8
Layer 1
10
131.707830
20
171.196486
70
0
0
VERTEX
8
Layer 1
10
131.329485
20
170.307490
70
0
0
VERTEX
8
Layer 1
10
130.824287
20
169.502238
70
0
0
VERTEX
8
Layer 1
10
129.500402
20
168.042870
70
0
0
VERTEX
8
Layer 1
10
127.870300
20
166.618200
70
0
0
VERTEX
8
Layer 1
10
127.870300
20
166.618200
70
0
0
VERTEX
8
Layer 1
10
126.539444
20
165.321573
70
0
0
VERTEX
8
Layer 1
10
125.266075
20
163.944613
70
0
0
VERTEX
8
Layer 1
10
123.901919
20
162.671770
70
0
0
VERTEX
8
Layer 1
10
122.298700
20
161.687500
70
0
0
VERTEX
8
Layer 1
10
122.298700
20
161.687500
70
0
0
SEQEND
8
Layer 1
0
POLYLINE
8
Layer 1
62
250
70
0
10
0.000000
20
0.000000
66
1
0
VERTEX
8
Layer 1
10
82.902600
20
207.856900
70
0
0
VERTEX
8
Layer 1
10
82.164281
20
206.645763
70
0
0
VERTEX
8
Layer 1
10
81.269894
20
205.659211
70
0
0
VERTEX
8
Layer 1
10
80.254269
20
204.891277
70
0
0
VERTEX
8
Layer 1
10
79.152237
20
204.335994
70
0
0
VERTEX
8
Layer 1
10
77.998629
20
203.987394
70
0
0
VERTEX
8
Layer 1
10
76.828275
20
203.839511
70
0
0
VERTEX
8
Layer 1
10
75.676005
20
203.886377
70
0
0
VERTEX
8
Layer 1
10
74.576650
20
204.122025
70
0
0
VERTEX
8
Layer 1
10
73.565040
20
204.540488
70
0
0
VERTEX
8
Layer 1
10
72.676006
20
205.135798
70
0
0
VERTEX
8
Layer 1
10
71.944379
20
205.901989
70
0
0
VERTEX
8
Layer 1
10
71.404988
20
206.833094
70
0
0
VERTEX
8
Layer 1
10
71.092664
20
207.923144
70
0
0
VERTEX
8
Layer 1
10
71.042237
20
209.166173
70
0
0
VERTEX
8
Layer 1
10
71.288539
20
210.556214
70
0
0
VERTEX
8
Layer 1
10
71.866400
20
212.087300
70
0
0
VERTEX
8
Layer 1
10
71.866400
20
212.087300
70
0
0
VERTEX
8
Layer 1
10
72.704300
20
213.447738
70
0
0
VERTEX
8
Layer 1
10
73.758800
20
214.523100
70
0
0
VERTEX
8
Layer 1
10
73.758800
20
214.523100
70
0
0
VERTEX
8
Layer 1
10
73.246734
20
213.402453
70
0
0
VERTEX
8
Layer 1
10
73.329775
20
212.243425
70
0
0
VERTEX
8
Layer 1
10
73.910928
20
210.952659
70
0
0
VERTEX
8
Layer 1
10
74.893200
20
209.436800
70
0
0
VERTEX
8
Layer 1
10
74.893200
20
209.436800
70
0
0
VERTEX
8
Layer 1
10
76.906314
20
209.126695
70
0
0
VERTEX
8
Layer 1
10
77.911440
20
209.103404
70
0
0
VERTEX
8
Layer 1
10
78.865663
20
209.281113
70
0
0
VERTEX
8
Layer 1
10
79.731521
20
209.744688
70
0
0
VERTEX
8
Layer 1
10
80.471555
20
210.578998
70
0
0
VERTEX
8
Layer 1
10
81.048301
20
211.868913
70
0
0
VERTEX
8
Layer 1
10
81.424300
20
213.699300
70
0
0
VERTEX
8
Layer 1
10
81.424300
20
213.699300
70
0
0
VERTEX
8
Layer 1
10
79.679638
20
212.800813
70
0
0
VERTEX
8
Layer 1
10
78.876330
20
212.472923
70
0
0
VERTEX
8
Layer 1
10
77.635200
20
212.220400
70
0
0
VERTEX
8
Layer 1
10
77.635200
20
212.220400
70
0
0
VERTEX
8
Layer 1
10
75.927400
20
215.729700
70
0
0
VERTEX
8
Layer 1
10
75.927400
20
215.729700
70
0
0
VERTEX
8
Layer 1
10
77.654767
20
216.106064
70
0
0
VERTEX
8
Layer 1
10
79.368061
20
216.066672
70
0
0
VERTEX
8
Layer 1
10
80.952109
20
215.625050
70
0
0
VERTEX
8
Layer 1
10
82.291738
20
214.794725
70
0
0
VERTEX
8
Layer 1
10
83.271774
20
213.589221
70
0
0
VERTEX
8
Layer 1
10
83.590954
20
212.850005
70
0
0
VERTEX
8
Layer 1
10
83.777045
20
212.022066
70
0
0
VERTEX
8
Layer 1
10
83.815652
20
211.107095
70
0
0
VERTEX
8
Layer 1
10
83.692378
20
210.106783
70
0
0
VERTEX
8
Layer 1
10
83.392826
20
209.022821
70
0
0
VERTEX
8
Layer 1
10
82.902600
20
207.856900
70
0
0
VERTEX
8
Layer 1
10
82.902600
20
207.856900
70
0
0
SEQEND
8
Layer 1
0
POLYLINE
8
Layer 1
62
250
70
0
10
0.000000
20
0.000000
66
1
0
VERTEX
8
Layer 1
10
111.485100
20
214.022400
70
0
0
VERTEX
8
Layer 1
10
110.837342
20
213.165183
70
0
0
VERTEX
8
Layer 1
10
110.032792
20
212.402681
70
0
0
VERTEX
8
Layer 1
10
108.057723
20
211.189725
70
0
0
VERTEX
8
Layer 1
10
105.768703
20
210.439331
70
0
0
VERTEX
8
Layer 1
10
103.374538
20
210.207300
70
0
0
VERTEX
8
Layer 1
10
102.203278
20
210.303108
70
0
0
VERTEX
8
Layer 1
10
101.084037
20
210.549431
70
0
0
VERTEX
8
Layer 1
10
100.042913
20
210.953245
70
0
0
VERTEX
8
Layer 1
10
99.106008
20
211.521525
70
0
0
VERTEX
8
Layer 1
10
98.299423
20
212.261245
70
0
0
VERTEX
8
Layer 1
10
97.649260
20
213.179381
70
0
0
VERTEX
8
Layer 1
10
97.181618
20
214.282908
70
0
0
VERTEX
8
Layer 1
10
96.922600
20
215.578800
70
0
0
VERTEX
8
Layer 1
10
96.922600
20
215.578800
70
0
0
VERTEX
8
Layer 1
10
96.899200
20
216.923844
70
0
0
VERTEX
8
Layer 1
10
97.105109
20
218.139664
70
0
0
VERTEX
8
Layer 1
10
97.511696
20
219.225830
70
0
0
VERTEX
8
Layer 1
10
98.090325
20
220.181913
70
0
0
VERTEX
8
Layer 1
10
98.812364
20
221.007481
70
0
0
VERTEX
8
Layer 1
10
99.649178
20
221.702105
70
0
0
VERTEX
8
Layer 1
10
101.552600
20
222.696800
70
0
0
VERTEX
8
Layer 1
10
101.552600
20
222.696800
70
0
0
VERTEX
8
Layer 1
10
102.098900
20
222.877400
70
0
0
VERTEX
8
Layer 1
10
102.098900
20
222.877400
70
0
0
VERTEX
8
Layer 1
10
101.173631
20
222.308292
70
0
0
VERTEX
8
Layer 1
10
100.443436
20
221.567139
70
0
0
VERTEX
8
Layer 1
10
99.933945
20
220.676701
70
0
0
VERTEX
8
Layer 1
10
99.670787
20
219.659738
70
0
0
VERTEX
8
Layer 1
10
99.679594
20
218.539006
70
0
0
VERTEX
8
Layer 1
10
99.985995
20
217.337267
70
0
0
VERTEX
8
Layer 1
10
100.615621
20
216.077279
70
0
0
VERTEX
8
Layer 1
10
101.594100
20
214.781800
70
0
0
VERTEX
8
Layer 1
10
101.594100
20
214.781800
70
0
0
VERTEX
8
Layer 1
10
102.641457
20
215.267489
70
0
0
VERTEX
8
Layer 1
10
103.676802
20
215.958123
70
0
0
VERTEX
8
Layer 1
10
105.609887
20
217.804338
70
0
0
VERTEX
8
Layer 1
10
107.190230
20
220.020658
70
0
0
VERTEX
8
Layer 1
10
108.214700
20
222.307300
70
0
0
VERTEX
8
Layer 1
10
108.214700
20
222.307300
70
0
0
VERTEX
8
Layer 1
10
108.261900
20
222.277800
70
0
0
VERTEX
8
Layer 1
10
108.261900
20
222.277800
70
0
0
VERTEX
8
Layer 1
10
109.499763
20
221.475575
70
0
0
VERTEX
8
Layer 1
10
109.509342
20
221.337075
70
0
0
VERTEX
8
Layer 1
10
109.831100
20
220.828000
70
0
0
VERTEX
8
Layer 1
10
109.831100
20
220.828000
70
0
0
VERTEX
8
Layer 1
10
109.133444
20
219.581464
70
0
0
VERTEX
8
Layer 1
10
108.720150
20
219.123113
70
0
0
VERTEX
8
Layer 1
10
108.173131
20
218.779305
70
0
0
VERTEX
8
Layer 1
10
107.074300
20
217.876400
70
0
0
VERTEX
8
Layer 1
10
107.074300
20
217.876400
70
0
0
VERTEX
8
Layer 1
10
105.543837
20
216.273850
70
0
0
VERTEX
8
Layer 1
10
104.605500
20
214.313700
70
0
0
VERTEX
8
Layer 1
10
104.605500
20
214.313700
70
0
0
VERTEX
8
Layer 1
10
108.892200
20
216.083500
70
0
0
VERTEX
8
Layer 1
10
108.892200
20
216.083500
70
0
0
VERTEX
8
Layer 1
10
111.485100
20
214.022400
70
0
0
VERTEX
8
Layer 1
10
111.485100
20
214.022400
70
0
0
SEQEND
8
Layer 1
0
POLYLINE
8
Layer 1
62
250
70
0
10
0.000000
20
0.000000
66
1
0
VERTEX
8
Layer 1
10
67.014800
20
209.981800
70
0
0
VERTEX
8
Layer 1
10
66.769928
20
210.307010
70
0
0
VERTEX
8
Layer 1
10
66.567914
20
210.381406
70
0
0
VERTEX
8
Layer 1
10
66.212987
20
210.427800
70
0
0
VERTEX
8
Layer 1
10
65.791067
20
211.421069
70
0
0
VERTEX
8
Layer 1
10
65.143200
20
214.661300
70
0
0
VERTEX
8
Layer 1
10
65.143200
20
214.661300
70
0
0
VERTEX
8
Layer 1
10
64.732406
20
216.928884
70
0
0
VERTEX
8
Layer 1
10
64.697918
20
217.129659
70
0
0
VERTEX
8
Layer 1
10
64.758300
20
216.990250
70
0
0
VERTEX
8
Layer 1
10
65.106469
20
216.536366
70
0
0
VERTEX
8
Layer 1
10
65.365652
20
216.644632
70
0
0
VERTEX
8
Layer 1
10
65.662500
20
217.258200
70
0
0
VERTEX
8
Layer 1
10
65.662500
20
217.258200
70
0
0
VERTEX
8
Layer 1
10
67.733787
20
215.919873
70
0
0
VERTEX
8
Layer 1
10
68.285058
20
215.460860
70
0
0
VERTEX
8
Layer 1
10
68.540650
20
214.965763
70
0
0
VERTEX
8
Layer 1
10
68.520992
20
214.302445
70
0
0
VERTEX
8
Layer 1
10
68.246512
20
213.338770
70
0
0
VERTEX
8
Layer 1
10
67.014800
20
209.981800
70
0
0
VERTEX
8
Layer 1
10
67.014800
20
209.981800
70
0
0
SEQEND
8
Layer 1
0
POLYLINE
8
Layer 1
62
250
70
0
10
0.000000
20
0.000000
66
1
0
VERTEX
8
Layer 1
10
76.678000
20
193.680100
70
0
0
VERTEX
8
Layer 1
10
77.260933
20
192.657408
70
0
0
VERTEX
8
Layer 1
10
77.703192
20
191.471619
70
0
0
VERTEX
8
Layer 1
10
78.223512
20
188.756625
70
0
0
VERTEX
8
Layer 1
10
78.354602
20
185.826869
70
0
0
VERTEX
8
Layer 1
10
78.212100
20
182.974100
70
0
0
VERTEX
8
Layer 1
10
78.212100
20
182.974100
70
0
0
VERTEX
8
Layer 1
10
76.216202
20
182.329377
70
0
0
VERTEX
8
Layer 1
10
75.442438
20
182.291413
70
0
0
VERTEX
8
Layer 1
10
73.975955
20
181.770167
70
0
0
VERTEX
8
Layer 1
10
69.901900
20
179.675600
70
0
0
VERTEX
8
Layer 1
10
69.901900
20
179.675600
70
0
0
VERTEX
8
Layer 1
10
70.872311
20
183.779355
70
0
0
VERTEX
8
Layer 1
10
72.435738
20
187.973812
70
0
0
VERTEX
8
Layer 1
10
73.387985
20
189.874216
70
0
0
VERTEX
8
Layer 1
10
74.426270
20
191.520289
70
0
0
VERTEX
8
Layer 1
10
75.529855
20
192.819696
70
0
0
VERTEX
8
Layer 1
10
76.678000
20
193.680100
70
0
0
VERTEX
8
Layer 1
10
76.678000
20
193.680100
70
0
0
SEQEND
8
Layer 1
0
POLYLINE
8
Layer 1
62
250
70
0
10
0.000000
20
0.000000
66
1
0
VERTEX
8
Layer 1
10
69.717900
20
185.084100
70
0
0
VERTEX
8
Layer 1
10
67.455502
20
176.427177
70
0
0
VERTEX
8
Layer 1
10
66.430922
20
172.232506
70
0
0
VERTEX
8
Layer 1
10
65.565112
20
168.016188
70
0
0
VERTEX
8
Layer 1
10
64.923838
20
163.695089
70
0
0
VERTEX
8
Layer 1
10
64.572867
20
159.186080
70
0
0
VERTEX
8
Layer 1
10
64.577965
20
154.406027
70
0
0
VERTEX
8
Layer 1
10
65.004900
20
149.271800
70
0
0
VERTEX
8
Layer 1
10
65.004900
20
149.271800
70
0
0
VERTEX
8
Layer 1
10
65.293641
20
145.687905
70
0
0
VERTEX
8
Layer 1
10
65.185213
20
144.696075
70
0
0
VERTEX
8
Layer 1
10
64.905000
20
143.988788
70
0
0
VERTEX
8
Layer 1
10
63.819459
20
142.681227
70
0
0
VERTEX
8
Layer 1
10
63.009252
20
141.707648
70
0
0
VERTEX
8
Layer 1
10
62.017500
20
140.272000
70
0
0
VERTEX
8
Layer 1
10
62.017500
20
140.272000
70
0
0
VERTEX
8
Layer 1
10
60.660010
20
137.822633
70
0
0
VERTEX
8
Layer 1
10
59.614373
20
135.320814
70
0
0
VERTEX
8
Layer 1
10
58.878878
20
132.787367
70
0
0
VERTEX
8
Layer 1
10
58.451812
20
130.243114
70
0
0
VERTEX
8
Layer 1
10
58.331464
20
127.708879
70
0
0
VERTEX
8
Layer 1
10
58.516120
20
125.205485
70
0
0
VERTEX
8
Layer 1
10
59.004070
20
122.753755
70
0
0
VERTEX
8
Layer 1
10
59.793600
20
120.374512
70
0
0
VERTEX
8
Layer 1
10
60.882999
20
118.088580
70
0
0
VERTEX
8
Layer 1
10
62.270555
20
115.916782
70
0
0
VERTEX
8
Layer 1
10
63.954555
20
113.879941
70
0
0
VERTEX
8
Layer 1
10
65.933288
20
111.998880
70
0
0
VERTEX
8
Layer 1
10
68.205040
20
110.294422
70
0
0
VERTEX
8
Layer 1
10
70.768102
20
108.787390
70
0
0
VERTEX
8
Layer 1
10
73.620759
20
107.498609
70
0
0
VERTEX
8
Layer 1
10
76.761300
20
106.448900
70
0
0
VERTEX
8
Layer 1
10
76.761300
20
106.448900
70
0
0
VERTEX
8
Layer 1
10
76.069507
20
103.742728
70
0
0
VERTEX
8
Layer 1
10
75.199742
20
100.993877
70
0
0
VERTEX
8
Layer 1
10
73.259237
20
95.223038
70
0
0
VERTEX
8
Layer 1
10
72.354967
20
92.128499
70
0
0
VERTEX
8
Layer 1
10
71.605664
20
88.846180
70
0
0
VERTEX
8
Layer 1
10
71.094563
20
85.339805
70
0
0
VERTEX
8
Layer 1
10
70.904900
20
81.573100
70
0
0
VERTEX
8
Layer 1
10
70.904900
20
81.573100
70
0
0
VERTEX
8
Layer 1
10
69.318634
20
82.384318
70
0
0
VERTEX
8
Layer 1
10
67.674131
20
83.434105
70
0
0
VERTEX
8
Layer 1
10
64.398025
20
85.989037
70
0
0
VERTEX
8
Layer 1
10
61.451806
20
88.717202
70
0
0
VERTEX
8
Layer 1
10
59.210700
20
91.097900
70
0
0
VERTEX
8
Layer 1
10
59.210700
20
91.097900
70
0
0
VERTEX
8
Layer 1
10
55.394876
20
95.738227
70
0
0
VERTEX
8
Layer 1
10
52.035694
20
100.409220
70
0
0
VERTEX
8
Layer 1
10
49.149002
20
105.207726
70
0
0
VERTEX
8
Layer 1
10
46.750650
20
110.230587
70
0
0
VERTEX
8
Layer 1
10
45.739554
20
112.856416
70
0
0
VERTEX
8
Layer 1
10
44.856485
20
115.574651
70
0
0
VERTEX
8
Layer 1
10
44.103426
20
118.397397
70
0
0
VERTEX
8
Layer 1
10
43.482356
20
121.336761
70
0
0
VERTEX
8
Layer 1
10
42.995258
20
124.404847
70
0
0
VERTEX
8
Layer 1
10
42.644112
20
127.613762
70
0
0
VERTEX
8
Layer 1
10
42.357600
20
134.502500
70
0
0
VERTEX
8
Layer 1
10
42.357600
20
134.502500
70
0
0
VERTEX
8
Layer 1
10
42.523738
20
138.836268
70
0
0
VERTEX
8
Layer 1
10
43.011991
20
143.086030
70
0
0
VERTEX
8
Layer 1
10
43.797446
20
147.236290
70
0
0
VERTEX
8
Layer 1
10
44.855189
20
151.271550
70
0
0
VERTEX
8
Layer 1
10
46.160306
20
155.176315
70
0
0
VERTEX
8
Layer 1
10
47.687883
20
158.935088
70
0
0
VERTEX
8
Layer 1
10
49.413007
20
162.532374
70
0
0
VERTEX
8
Layer 1
10
51.310763
20
165.952675
70
0
0
VERTEX
8
Layer 1
10
53.356237
20
169.180496
70
0
0
VERTEX
8
Layer 1
10
55.524515
20
172.200340
70
0
0
VERTEX
8
Layer 1
10
57.790684
20
174.996711
70
0
0
VERTEX
8
Layer 1
10
60.129830
20
177.554112
70
0
0
VERTEX
8
Layer 1
10
62.517038
20
179.857049
70
0
0
VERTEX
8
Layer 1
10
64.927395
20
181.890023
70
0
0
VERTEX
8
Layer 1
10
67.335987
20
183.637539
70
0
0
VERTEX
8
Layer 1
10
69.717900
20
185.084100
70
0
0
VERTEX
8
Layer 1
10
69.717900
20
185.084100
70
0
0
SEQEND
8
Layer 1
0
POLYLINE
8
Layer 1
62
250
70
0
10
0.000000
20
0.000000
66
1
0
VERTEX
8
Layer 1
10
66.349300
20
116.673800
70
0
0
VERTEX
8
Layer 1
10
65.996150
20
118.243389
70
0
0
VERTEX
8
Layer 1
10
65.894528
20
119.666591
70
0
0
VERTEX
8
Layer 1
10
66.033868
20
120.942665
70
0
0
VERTEX
8
Layer 1
10
66.403600
20
122.070875
70
0
0
VERTEX
8
Layer 1
10
66.993157
20
123.050482
70
0
0
VERTEX
8
Layer 1
10
67.791972
20
123.880747
70
0
0
VERTEX
8
Layer 1
10
68.789475
20
124.560932
70
0
0
VERTEX
8
Layer 1
10
69.975100
20
125.090300
70
0
0
VERTEX
8
Layer 1
10
69.975100
20
125.090300
70
0
0
VERTEX
8
Layer 1
10
71.544574
20
125.480900
70
0
0
VERTEX
8
Layer 1
10
72.971072
20
125.515318
70
0
0
VERTEX
8
Layer 1
10
74.249359
20
125.235896
70
0
0
VERTEX
8
Layer 1
10
75.374205
20
124.684978
70
0
0
VERTEX
8
Layer 1
10
76.340375
20
123.904909
70
0
0
VERTEX
8
Layer 1
10
77.142638
20
122.938031
70
0
0
VERTEX
8
Layer 1
10
77.775762
20
121.826688
70
0
0
VERTEX
8
Layer 1
10
78.234512
20
120.613225
70
0
0
VERTEX
8
Layer 1
10
78.513658
20
119.339984
70
0
0
VERTEX
8
Layer 1
10
78.607966
20
118.049310
70
0
0
VERTEX
8
Layer 1
10
78.512204
20
116.783545
70
0
0
VERTEX
8
Layer 1
10
78.221139
20
115.585034
70
0
0
VERTEX
8
Layer 1
10
77.729539
20
114.496121
70
0
0
VERTEX
8
Layer 1
10
77.032171
20
113.559148
70
0
0
VERTEX
8
Layer 1
10
76.123802
20
112.816460
70
0
0
VERTEX
8
Layer 1
10
74.999200
20
112.310400
70
0
0
VERTEX
8
Layer 1
10
74.999200
20
112.310400
70
0
0
VERTEX
8
Layer 1
10
73.413007
20
111.988033
70
0
0
VERTEX
8
Layer 1
10
71.938230
20
111.987050
70
0
0
VERTEX
8
Layer 1
10
70.591297
20
112.270730
70
0
0
VERTEX
8
Layer 1
10
69.388638
20
112.802350
70
0
0
VERTEX
8
Layer 1
10
68.346679
20
113.545189
70
0
0
VERTEX
8
Layer 1
10
67.481852
20
114.462525
70
0
0
VERTEX
8
Layer 1
10
66.810582
20
115.517636
70
0
0
VERTEX
8
Layer 1
10
66.349300
20
116.673800
70
0
0
VERTEX
8
Layer 1
10
66.349300
20
116.673800
70
0
0
SEQEND
8
Layer 1
0
POLYLINE
8
Layer 1
62
250
70
0
10
0.000000
20
0.000000
66
1
0
VERTEX
8
Layer 1
10
81.461800
20
131.903900
70
0
0
VERTEX
8
Layer 1
10
82.139498
20
133.064069
70
0
0
VERTEX
8
Layer 1
10
82.544713
20
134.052450
70
0
0
VERTEX
8
Layer 1
10
82.969820
20
135.024931
70
0
0
VERTEX
8
Layer 1
10
83.707200
20
136.137400
70
0
0
VERTEX
8
Layer 1
10
83.707200
20
136.137400
70
0
0
VERTEX
8
Layer 1
10
84.178640
20
134.572819
70
0
0
VERTEX
8
Layer 1
10
84.453048
20
133.125777
70
0
0
VERTEX
8
Layer 1
10
84.542985
20
131.803795
70
0
0
VERTEX
8
Layer 1
10
84.461014
20
130.614395
70
0
0
VERTEX
8
Layer 1
10
84.219697
20
129.565098
70
0
0
VERTEX
8
Layer 1
10
83.831595
20
128.663426
70
0
0
VERTEX
8
Layer 1
10
83.309271
20
127.916898
70
0
0
VERTEX
8
Layer 1
10
82.665288
20
127.333037
70
0
0
VERTEX
8
Layer 1
10
81.912206
20
126.919365
70
0
0
VERTEX
8
Layer 1
10
81.062588
20
126.683401
70
0
0
VERTEX
8
Layer 1
10
80.128996
20
126.632668
70
0
0
VERTEX
8
Layer 1
10
79.123992
20
126.774686
70
0
0
VERTEX
8
Layer 1
10
78.060139
20
127.116977
70
0
0
VERTEX
8
Layer 1
10
76.949997
20
127.667062
70
0
0
VERTEX
8
Layer 1
10
75.806131
20
128.432463
70
0
0
VERTEX
8
Layer 1
10
74.641100
20
129.420700
70
0
0
VERTEX
8
Layer 1
10
74.641100
20
129.420700
70
0
0
VERTEX
8
Layer 1
10
74.513300
20
131.491425
70
0
0
VERTEX
8
Layer 1
10
74.694950
20
133.223975
70
0
0
VERTEX
8
Layer 1
10
75.108650
20
134.750837
70
0
0
VERTEX
8
Layer 1
10
75.677000
20
136.204500
70
0
0
VERTEX
8
Layer 1
10
75.677000
20
136.204500
70
0
0
VERTEX
8
Layer 1
10
76.655094
20
134.936812
70
0
0
VERTEX
8
Layer 1
10
76.998350
20
134.098350
70
0
0
VERTEX
8
Layer 1
10
77.277931
20
133.196362
70
0
0
VERTEX
8
Layer 1
10
78.065000
20
131.738100
70
0
0
VERTEX
8
Layer 1
10
78.065000
20
131.738100
70
0
0
VERTEX
8
Layer 1
10
81.461800
20
131.903900
70
0
0
VERTEX
8
Layer 1
10
81.461800
20
131.903900
70
0
0
SEQEND
8
Layer 1
0
POLYLINE
8
Layer 1
62
250
70
0
10
0.000000
20
0.000000
66
1
0
VERTEX
8
Layer 1
10
109.156500
20
118.540200
70
0
0
VERTEX
8
Layer 1
10
108.767986
20
120.035464
70
0
0
VERTEX
8
Layer 1
10
108.514967
20
121.887533
70
0
0
VERTEX
8
Layer 1
10
108.460668
20
123.924469
70
0
0
VERTEX
8
Layer 1
10
108.668312
20
125.974338
70
0
0
VERTEX
8
Layer 1
10
109.201124
20
127.865201
70
0
0
VERTEX
8
Layer 1
10
110.122327
20
129.425123
70
0
0
VERTEX
8
Layer 1
10
110.748332
20
130.027252
70
0
0
VERTEX
8
Layer 1
10
111.495144
20
130.482169
70
0
0
VERTEX
8
Layer 1
10
112.370666
20
130.768382
70
0
0
VERTEX
8
Layer 1
10
113.382800
20
130.864400
70
0
0
VERTEX
8
Layer 1
10
113.382800
20
130.864400
70
0
0
VERTEX
8
Layer 1
10
113.637431
20
129.925201
70
0
0
VERTEX
8
Layer 1
10
113.855273
20
128.373952
70
0
0
VERTEX
8
Layer 1
10
113.942876
20
126.430773
70
0
0
VERTEX
8
Layer 1
10
113.806787
20
124.315788
70
0
0
VERTEX
8
Layer 1
10
113.353557
20
122.249116
70
0
0
VERTEX
8
Layer 1
10
112.978810
20
121.302686
70
0
0
VERTEX
8
Layer 1
10
112.489733
20
120.450880
70
0
0
VERTEX
8
Layer 1
10
111.874645
20
119.721213
70
0
0
VERTEX
8
Layer 1
10
111.121864
20
119.141201
70
0
0
VERTEX
8
Layer 1
10
110.219710
20
118.738358
70
0
0
VERTEX
8
Layer 1
10
109.156500
20
118.540200
70
0
0
VERTEX
8
Layer 1
10
109.156500
20
118.540200
70
0
0
SEQEND
8
Layer 1
0
POLYLINE
8
Layer 1
62
250
70
0
10
0.000000
20
0.000000
66
1
0
VERTEX
8
Layer 1
10
91.296700
20
122.896700
70
0
0
VERTEX
8
Layer 1
10
92.548306
20
123.645096
70
0
0
VERTEX
8
Layer 1
10
94.223195
20
124.422420
70
0
0
VERTEX
8
Layer 1
10
96.098008
20
125.081912
70
0
0
VERTEX
8
Layer 1
10
97.949388
20
125.476812
70
0
0
VERTEX
8
Layer 1
10
99.553974
20
125.460361
70
0
0
VERTEX
8
Layer 1
10
100.193921
20
125.252016
70
0
0
VERTEX
8
Layer 1
10
100.688411
20
124.885798
70
0
0
VERTEX
8
Layer 1
10
101.009523
20
124.343363
70
0
0
VERTEX
8
Layer 1
10
101.129339
20
123.606365
70
0
0
VERTEX
8
Layer 1
10
101.019938
20
122.656459
70
0
0
VERTEX
8
Layer 1
10
100.653400
20
121.475300
70
0
0
VERTEX
8
Layer 1
10
100.653400
20
121.475300
70
0
0
VERTEX
8
Layer 1
10
99.970500
20
120.012450
70
0
0
VERTEX
8
Layer 1
10
99.206900
20
118.753900
70
0
0
VERTEX
8
Layer 1
10
99.206900
20
118.753900
70
0
0
VERTEX
8
Layer 1
10
97.606691
20
119.264102
70
0
0
VERTEX
8
Layer 1
10
95.942900
20
119.606912
70
0
0
VERTEX
8
Layer 1
10
94.161584
20
119.731342
70
0
0
VERTEX
8
Layer 1
10
92.208800
20
119.586400
70
0
0
VERTEX
8
Layer 1
10
92.208800
20
119.586400
70
0
0
VERTEX
8
Layer 1
10
91.296700
20
122.896700
70
0
0
VERTEX
8
Layer 1
10
91.296700
20
122.896700
70
0
0
SEQEND
8
Layer 1
0
POLYLINE
8
Layer 1
62
250
70
0
10
0.000000
20
0.000000
66
1
0
VERTEX
8
Layer 1
10
92.713500
20
118.508700
70
0
0
VERTEX
8
Layer 1
10
94.437936
20
119.009356
70
0
0
VERTEX
8
Layer 1
10
95.932713
20
119.035375
70
0
0
VERTEX
8
Layer 1
10
97.331808
20
118.728806
70
0
0
VERTEX
8
Layer 1
10
98.769200
20
118.231700
70
0
0
VERTEX
8
Layer 1
10
98.769200
20
118.231700
70
0
0
VERTEX
8
Layer 1
10
98.286062
20
116.760391
70
0
0
VERTEX
8
Layer 1
10
97.777200
20
115.812150
70
0
0
VERTEX
8
Layer 1
10
97.020387
20
115.120709
70
0
0
VERTEX
8
Layer 1
10
95.793400
20
114.419800
70
0
0
VERTEX
8
Layer 1
10
95.793400
20
114.419800
70
0
0
VERTEX
8
Layer 1
10
94.353539
20
115.407202
70
0
0
VERTEX
8
Layer 1
10
93.698712
20
116.120262
70
0
0
VERTEX
8
Layer 1
10
92.713500
20
118.508700
70
0
0
VERTEX
8
Layer 1
10
92.713500
20
118.508700
70
0
0
SEQEND
8
Layer 1
0
POLYLINE
8
Layer 1
62
250
70
0
10
0.000000
20
0.000000
66
1
0
VERTEX
8
Layer 1
10
65.731800
20
208.513100
70
0
0
VERTEX
8
Layer 1
10
67.769200
20
199.778800
70
0
0
VERTEX
8
Layer 1
10
67.769200
20
199.778800
70
0
0
VERTEX
8
Layer 1
10
63.726100
20
198.748900
70
0
0
VERTEX
8
Layer 1
10
63.726100
20
198.748900
70
0
0
VERTEX
8
Layer 1
10
62.681977
20
201.813045
70
0
0
VERTEX
8
Layer 1
10
61.204138
20
205.173937
70
0
0
VERTEX
8
Layer 1
10
58.173300
20
211.766300
70
0
0
VERTEX
8
Layer 1
10
58.173300
20
211.766300
70
0
0
VERTEX
8
Layer 1
10
56.694362
20
215.169133
70
0
0
VERTEX
8
Layer 1
10
55.956575
20
216.320887
70
0
0
VERTEX
8
Layer 1
10
55.708968
20
216.401059
70
0
0
VERTEX
8
Layer 1
10
55.458675
20
216.336598
70
0
0
VERTEX
8
Layer 1
10
55.143038
20
216.266886
70
0
0
VERTEX
8
Layer 1
10
54.699400
20
216.331300
70
0
0
VERTEX
8
Layer 1
10
54.699400
20
216.331300
70
0
0
VERTEX
8
Layer 1
10
54.046911
20
216.333286
70
0
0
VERTEX
8
Layer 1
10
53.749923
20
216.315439
70
0
0
VERTEX
8
Layer 1
10
53.425837
20
216.437862
70
0
0
VERTEX
8
Layer 1
10
53.039704
20
216.815178
70
0
0
VERTEX
8
Layer 1
10
52.556570
20
217.562008
70
0
0
VERTEX
8
Layer 1
10
51.159500
20
220.622700
70
0
0
VERTEX
8
Layer 1
10
51.159500
20
220.622700
70
0
0
VERTEX
8
Layer 1
10
53.249242
20
221.842904
70
0
0
VERTEX
8
Layer 1
10
55.421397
20
222.813950
70
0
0
VERTEX
8
Layer 1
10
57.629493
20
223.539344
70
0
0
VERTEX
8
Layer 1
10
59.827055
20
224.022589
70
0
0
VERTEX
8
Layer 1
10
61.967609
20
224.267189
70
0
0
VERTEX
8
Layer 1
10
64.004681
20
224.276649
70
0
0
VERTEX
8
Layer 1
10
65.891799
20
224.054472
70
0
0
VERTEX
8
Layer 1
10
67.582487
20
223.604163
70
0
0
VERTEX
8
Layer 1
10
69.030273
20
222.929224
70
0
0
VERTEX
8
Layer 1
10
70.188683
20
222.033162
70
0
0
VERTEX
8
Layer 1
10
71.011242
20
220.919479
70
0
0
VERTEX
8
Layer 1
10
71.451477
20
219.591680
70
0
0
VERTEX
8
Layer 1
10
71.462914
20
218.053268
70
0
0
VERTEX
8
Layer 1
10
70.999079
20
216.307748
70
0
0
VERTEX
8
Layer 1
10
70.013499
20
214.358624
70
0
0
VERTEX
8
Layer 1
10
68.459700
20
212.209400
70
0
0
VERTEX
8
Layer 1
10
68.459700
20
212.209400
70
0
0
VERTEX
8
Layer 1
10
69.043713
20
213.736642
70
0
0
VERTEX
8
Layer 1
10
69.219352
20
215.104255
70
0
0
VERTEX
8
Layer 1
10
69.010843
20
216.290318
70
0
0
VERTEX
8
Layer 1
10
68.442412
20
217.272912
70
0
0
VERTEX
8
Layer 1
10
67.538287
20
218.030118
70
0
0
VERTEX
8
Layer 1
10
66.322692
20
218.540014
70
0
0
VERTEX
8
Layer 1
10
64.819854
20
218.780681
70
0
0
VERTEX
8
Layer 1
10
63.054000
20
218.730200
70
0
0
VERTEX
8
Layer 1
10
63.054000
20
218.730200
70
0
0
VERTEX
8
Layer 1
10
63.198225
20
216.070725
70
0
0
VERTEX
8
Layer 1
10
63.775200
20
213.413800
70
0
0
VERTEX
8
Layer 1
10
63.775200
20
213.413800
70
0
0
VERTEX
8
Layer 1
10
65.691500
20
208.471600
70
0
0
VERTEX
8
Layer 1
10
65.691500
20
208.471600
70
0
0
VERTEX
8
Layer 1
10
65.731800
20
208.513100
70
0
0
VERTEX
8
Layer 1
10
65.731800
20
208.513100
70
0
0
SEQEND
8
Layer 1
0
POLYLINE
8
Layer 1
62
250
70
0
10
0.000000
20
0.000000
66
1
0
VERTEX
8
Layer 1
10
108.151200
20
228.797700
70
0
0
VERTEX
8
Layer 1
10
102.111600
20
226.080100
70
0
0
VERTEX
8
Layer 1
10
102.111600
20
226.080100
70
0
0
VERTEX
8
Layer 1
10
103.004259
20
227.589850
70
0
0
VERTEX
8
Layer 1
10
104.041950
20
228.953800
70
0
0
VERTEX
8
Layer 1
10
106.408200
20
231.433300
70
0
0
VERTEX
8
Layer 1
10
106.408200
20
231.433300
70
0
0
VERTEX
8
Layer 1
10
108.151200
20
228.797700
70
0
0
VERTEX
8
Layer 1
10
108.151200
20
228.797700
70
0
0
SEQEND
8
Layer 1
0
POLYLINE
8
Layer 1
62
250
70
0
10
0.000000
20
0.000000
66
1
0
VERTEX
8
Layer 1
10
134.036000
20
206.578900
70
0
0
VERTEX
8
Layer 1
10
132.851930
20
206.105592
70
0
0
VERTEX
8
Layer 1
10
131.724491
20
205.849507
70
0
0
VERTEX
8
Layer 1
10
130.664908
20
205.793245
70
0
0
VERTEX
8
Layer 1
10
129.684406
20
205.919409
70
0
0
VERTEX
8
Layer 1
10
128.794212
20
206.210600
70
0
0
VERTEX
8
Layer 1
10
128.005550
20
206.649420
70
0
0
VERTEX
8
Layer 1
10
127.329646
20
207.218469
70
0
0
VERTEX
8
Layer 1
10
126.777725
20
207.900350
70
0
0
VERTEX
8
Layer 1
10
126.361013
20
208.677664
70
0
0
VERTEX
8
Layer 1
10
126.090734
20
209.533011
70
0
0
VERTEX
8
Layer 1
10
125.978115
20
210.448995
70
0
0
VERTEX
8
Layer 1
10
126.034381
20
211.408216
70
0
0
VERTEX
8
Layer 1
10
126.270757
20
212.393275
70
0
0
VERTEX
8
Layer 1
10
126.698469
20
213.386775
70
0
0
VERTEX
8
Layer 1
10
127.328741
20
214.371316
70
0
0
VERTEX
8
Layer 1
10
128.172800
20
215.329500
70
0
0
VERTEX
8
Layer 1
10
128.172800
20
215.329500
70
0
0
VERTEX
8
Layer 1
10
128.095088
20
214.037312
70
0
0
VERTEX
8
Layer 1
10
128.294500
20
212.400500
70
0
0
VERTEX
8
Layer 1
10
128.294500
20
212.400500
70
0
0
VERTEX
8
Layer 1
10
129.912581
20
211.217930
70
0
0
VERTEX
8
Layer 1
10
130.540858
20
210.911515
70
0
0
VERTEX
8
Layer 1
10
131.146175
20
210.771513
70
0
0
VERTEX
8
Layer 1
10
132.580581
20
210.920239
70
0
0
VERTEX
8
Layer 1
10
134.801100
20
211.523100
70
0
0
VERTEX
8
Layer 1
10
134.801100
20
211.523100
70
0
0
VERTEX
8
Layer 1
10
135.648500
20
215.632200
70
0
0
VERTEX
8
Layer 1
10
135.648500
20
215.632200
70
0
0
VERTEX
8
Layer 1
10
134.594612
20
214.635112
70
0
0
VERTEX
8
Layer 1
10
134.276520
20
214.421658
70
0
0
VERTEX
8
Layer 1
10
133.566000
20
214.209600
70
0
0
VERTEX
8
Layer 1
10
133.566000
20
214.209600
70
0
0
VERTEX
8
Layer 1
10
132.316741
20
213.952014
70
0
0
VERTEX
8
Layer 1
10
131.845925
20
214.011237
70
0
0
VERTEX
8
Layer 1
10
131.620172
20
214.280292
70
0
0
VERTEX
8
Layer 1
10
131.106100
20
214.652200
70
0
0
VERTEX
8
Layer 1
10
131.106100
20
214.652200
70
0
0
VERTEX
8
Layer 1
10
130.680641
20
215.879103
70
0
0
VERTEX
8
Layer 1
10
130.512750
20
216.499425
70
0
0
VERTEX
8
Layer 1
10
130.820659
20
216.947284
70
0
0
VERTEX
8
Layer 1
10
131.822600
20
217.656800
70
0
0
VERTEX
8
Layer 1
10
131.822600
20
217.656800
70
0
0
VERTEX
8
Layer 1
10
132.944017
20
217.903337
70
0
0
VERTEX
8
Layer 1
10
133.964719
20
217.893468
70
0
0
VERTEX
8
Layer 1
10
134.878199
20
217.655311
70
0
0
VERTEX
8
Layer 1
10
135.677952
20
217.216984
70
0
0
VERTEX
8
Layer 1
10
136.357470
20
216.606607
70
0
0
VERTEX
8
Layer 1
10
136.910249
20
215.852296
70
0
0
VERTEX
8
Layer 1
10
137.329782
20
214.982171
70
0
0
VERTEX
8
Layer 1
10
137.609562
20
214.024350
70
0
0
VERTEX
8
Layer 1
10
137.743085
20
213.006950
70
0
0
VERTEX
8
Layer 1
10
137.723843
20
211.958091
70
0
0
VERTEX
8
Layer 1
10
137.545331
20
210.905890
70
0
0
VERTEX
8
Layer 1
10
137.201042
20
209.878466
70
0
0
VERTEX
8
Layer 1
10
136.684471
20
208.903936
70
0
0
VERTEX
8
Layer 1
10
135.989111
20
208.010420
70
0
0
VERTEX
8
Layer 1
10
135.108456
20
207.226035
70
0
0
VERTEX
8
Layer 1
10
134.036000
20
206.578900
70
0
0
VERTEX
8
Layer 1
10
134.036000
20
206.578900
70
0
0
SEQEND
8
Layer 1
0
POLYLINE
8
Layer 1
62
250
70
0
10
0.000000
20
0.000000
66
1
0
VERTEX
8
Layer 1
10
94.544600
20
215.069600
70
0
0
VERTEX
8
Layer 1
10
93.471300
20
215.593300
70
0
0
VERTEX
8
Layer 1
10
93.471300
20
215.593300
70
0
0
VERTEX
8
Layer 1
10
94.933400
20
216.543300
70
0
0
VERTEX
8
Layer 1
10
94.933400
20
216.543300
70
0
0
VERTEX
8
Layer 1
10
94.544600
20
215.069600
70
0
0
VERTEX
8
Layer 1
10
94.544600
20
215.069600
70
0
0
SEQEND
8
Layer 1
0
POLYLINE
8
Layer 1
62
250
70
0
10
0.000000
20
0.000000
66
1
0
VERTEX
8
Layer 1
10
101.844700
20
217.851900
70
0
0
VERTEX
8
Layer 1
10
102.044737
20
220.050875
70
0
0
VERTEX
8
Layer 1
10
102.137995
20
220.654507
70
0
0
VERTEX
8
Layer 1
10
102.316625
20
221.019475
70
0
0
VERTEX
8
Layer 1
10
102.648040
20
221.214709
70
0
0
VERTEX
8
Layer 1
10
103.199650
20
221.309137
70
0
0
VERTEX
8
Layer 1
10
105.233100
20
221.471300
70
0
0
VERTEX
8
Layer 1
10
105.233100
20
221.471300
70
0
0
VERTEX
8
Layer 1
10
104.679911
20
220.249373
70
0
0
VERTEX
8
Layer 1
10
104.145387
20
219.460187
70
0
0
VERTEX
8
Layer 1
10
103.307620
20
218.771708
70
0
0
VERTEX
8
Layer 1
10
101.844700
20
217.851900
70
0
0
VERTEX
8
Layer 1
10
101.844700
20
217.851900
70
0
0
SEQEND
8
Layer 1
 0 
ENDSEC
 0 
EOF