999
"DXF R12 Output" (www.mydxf.blogspot.com)
 0 
SECTION
 2 
HEADER
 9 
$ACADVER
 1 
AC1009
 9 
$EXTMIN
 10 
 0 
 20 
 0 
 9 
$EXTMAX
 10 
 8.5 
 20 
 11 
 0 
ENDSEC
 0 
SECTION
 2 
ENTITIES
0
POLYLINE
8
Layer 1
62
7
70
1
10
0.000000
20
0.000000
66
1
0
VERTEX
8
Layer 1
10
-29.003059
20
54.508648
70
0
0
VERTEX
8
Layer 1
10
82.911581
20
78.296882
70
0
0
VERTEX
8
Layer 1
10
84.451983
20
71.050456
70
0
0
VERTEX
8
Layer 1
10
-27.462922
20
47.262222
70
0
0
VERTEX
8
Layer 1
10
-29.003059
20
54.508648
70
0
0
VERTEX
8
Layer 1
10
-29.003059
20
54.508648
70
0
0
SEQEND
8
Layer 1
0
POLYLINE
8
Layer 1
62
7
70
1
10
0.000000
20
0.000000
66
1
0
VERTEX
8
Layer 1
10
-27.462922
20
47.262222
70
0
0
VERTEX
8
Layer 1
10
84.451983
20
71.050456
70
0
0
VERTEX
8
Layer 1
10
85.992121
20
63.804031
70
0
0
VERTEX
8
Layer 1
10
-25.922652
20
40.015850
70
0
0
VERTEX
8
Layer 1
10
-27.462922
20
47.262222
70
0
0
VERTEX
8
Layer 1
10
-27.462922
20
47.262222
70
0
0
SEQEND
8
Layer 1
0
POLYLINE
8
Layer 1
62
7
70
1
10
0.000000
20
0.000000
66
1
0
VERTEX
8
Layer 1
10
-25.922652
20
40.015850
70
0
0
VERTEX
8
Layer 1
10
85.992121
20
63.804031
70
0
0
VERTEX
8
Layer 1
10
87.532523
20
56.557579
70
0
0
VERTEX
8
Layer 1
10
-24.382355
20
32.769450
70
0
0
VERTEX
8
Layer 1
10
-25.922652
20
40.015850
70
0
0
VERTEX
8
Layer 1
10
-25.922652
20
40.015850
70
0
0
SEQEND
8
Layer 1
0
POLYLINE
8
Layer 1
62
7
70
1
10
0.000000
20
0.000000
66
1
0
VERTEX
8
Layer 1
10
-24.382355
20
32.769450
70
0
0
VERTEX
8
Layer 1
10
87.532523
20
56.557579
70
0
0
VERTEX
8
Layer 1
10
89.072661
20
49.311153
70
0
0
VERTEX
8
Layer 1
10
-22.842085
20
25.522787
70
0
0
VERTEX
8
Layer 1
10
-24.382355
20
32.769450
70
0
0
VERTEX
8
Layer 1
10
-24.382355
20
32.769450
70
0
0
SEQEND
8
Layer 1
0
POLYLINE
8
Layer 1
62
7
70
1
10
0.000000
20
0.000000
66
1
0
VERTEX
8
Layer 1
10
-22.842085
20
25.522787
70
0
0
VERTEX
8
Layer 1
10
89.072661
20
49.311153
70
0
0
VERTEX
8
Layer 1
10
90.613063
20
42.064701
70
0
0
VERTEX
8
Layer 1
10
-21.301815
20
18.276387
70
0
0
VERTEX
8
Layer 1
10
-22.842085
20
25.522787
70
0
0
VERTEX
8
Layer 1
10
-22.842085
20
25.522787
70
0
0
SEQEND
8
Layer 1
0
POLYLINE
8
Layer 1
62
7
70
1
10
0.000000
20
0.000000
66
1
0
VERTEX
8
Layer 1
10
-21.301815
20
18.276387
70
0
0
VERTEX
8
Layer 1
10
90.613063
20
42.064701
70
0
0
VERTEX
8
Layer 1
10
92.153201
20
34.818381
70
0
0
VERTEX
8
Layer 1
10
-19.761519
20
11.029988
70
0
0
VERTEX
8
Layer 1
10
-21.301815
20
18.276387
70
0
0
VERTEX
8
Layer 1
10
-21.301815
20
18.276387
70
0
0
SEQEND
8
Layer 1
0
POLYLINE
8
Layer 1
62
7
70
1
10
0.000000
20
0.000000
66
1
0
VERTEX
8
Layer 1
10
-19.761519
20
11.029988
70
0
0
VERTEX
8
Layer 1
10
92.153201
20
34.818381
70
0
0
VERTEX
8
Layer 1
10
93.693603
20
27.571717
70
0
0
VERTEX
8
Layer 1
10
-18.221249
20
3.783589
70
0
0
VERTEX
8
Layer 1
10
-19.761519
20
11.029988
70
0
0
VERTEX
8
Layer 1
10
-19.761519
20
11.029988
70
0
0
SEQEND
8
Layer 1
0
POLYLINE
8
Layer 1
62
7
70
1
10
0.000000
20
0.000000
66
1
0
VERTEX
8
Layer 1
10
-18.221249
20
3.783589
70
0
0
VERTEX
8
Layer 1
10
93.693603
20
27.571717
70
0
0
VERTEX
8
Layer 1
10
95.233740
20
20.325318
70
0
0
VERTEX
8
Layer 1
10
-16.680979
20
-3.462810
70
0
0
VERTEX
8
Layer 1
10
-18.221249
20
3.783589
70
0
0
VERTEX
8
Layer 1
10
-18.221249
20
3.783589
70
0
0
SEQEND
8
Layer 1
0
POLYLINE
8
Layer 1
62
7
70
1
10
0.000000
20
0.000000
66
1
0
VERTEX
8
Layer 1
10
-16.680979
20
-3.462810
70
0
0
VERTEX
8
Layer 1
10
95.233740
20
20.325318
70
0
0
VERTEX
8
Layer 1
10
96.774143
20
13.078919
70
0
0
VERTEX
8
Layer 1
10
-15.140683
20
-10.709210
70
0
0
VERTEX
8
Layer 1
10
-16.680979
20
-3.462810
70
0
0
VERTEX
8
Layer 1
10
-16.680979
20
-3.462810
70
0
0
SEQEND
8
Layer 1
0
POLYLINE
8
Layer 1
62
7
70
1
10
0.000000
20
0.000000
66
1
0
VERTEX
8
Layer 1
10
-15.140683
20
-10.709210
70
0
0
VERTEX
8
Layer 1
10
96.774143
20
13.078919
70
0
0
VERTEX
8
Layer 1
10
98.314545
20
5.832520
70
0
0
VERTEX
8
Layer 1
10
-13.600413
20
-17.955609
70
0
0
VERTEX
8
Layer 1
10
-15.140683
20
-10.709210
70
0
0
VERTEX
8
Layer 1
10
-15.140683
20
-10.709210
70
0
0
SEQEND
8
Layer 1
0
POLYLINE
8
Layer 1
62
7
70
1
10
0.000000
20
0.000000
66
1
0
VERTEX
8
Layer 1
10
-30.543462
20
61.755074
70
0
0
VERTEX
8
Layer 1
10
81.371443
20
85.543308
70
0
0
VERTEX
8
Layer 1
10
82.911581
20
78.296882
70
0
0
VERTEX
8
Layer 1
10
-29.003059
20
54.508648
70
0
0
VERTEX
8
Layer 1
10
-30.543462
20
61.755074
70
0
0
VERTEX
8
Layer 1
10
-30.543462
20
61.755074
70
0
0
SEQEND
8
Layer 1
0
POLYLINE
8
Layer 1
62
7
70
1
10
0.000000
20
0.000000
66
1
0
VERTEX
8
Layer 1
10
-30.550076
20
61.785606
70
0
0
VERTEX
8
Layer 1
10
81.364829
20
85.573841
70
0
0
VERTEX
8
Layer 1
10
82.905231
20
78.327415
70
0
0
VERTEX
8
Layer 1
10
-29.009674
20
54.539181
70
0
0
VERTEX
8
Layer 1
10
-30.550076
20
61.785606
70
0
0
VERTEX
8
Layer 1
10
-30.550076
20
61.785606
70
0
0
SEQEND
8
Layer 1
0
POLYLINE
8
Layer 1
62
7
70
1
10
0.000000
20
0.000000
66
1
0
VERTEX
8
Layer 1
10
33.866624
20
0.000052
70
0
0
VERTEX
8
Layer 1
10
38.711800
20
0.082734
70
0
0
VERTEX
8
Layer 1
10
43.100571
20
0.344010
70
0
0
VERTEX
8
Layer 1
10
47.052779
20
0.803723
70
0
0
VERTEX
8
Layer 1
10
50.588270
20
1.481717
70
0
0
VERTEX
8
Layer 1
10
53.726885
20
2.397835
70
0
0
VERTEX
8
Layer 1
10
56.488470
20
3.571922
70
0
0
VERTEX
8
Layer 1
10
58.892869
20
5.023822
70
0
0
VERTEX
8
Layer 1
10
60.959923
20
6.773377
70
0
0
VERTEX
8
Layer 1
10
62.709478
20
8.840431
70
0
0
VERTEX
8
Layer 1
10
64.161378
20
11.244829
70
0
0
VERTEX
8
Layer 1
10
65.335465
20
14.006415
70
0
0
VERTEX
8
Layer 1
10
66.251583
20
17.145030
70
0
0
VERTEX
8
Layer 1
10
66.929577
20
20.680521
70
0
0
VERTEX
8
Layer 1
10
67.389290
20
24.632729
70
0
0
VERTEX
8
Layer 1
10
67.650566
20
29.021500
70
0
0
VERTEX
8
Layer 1
10
67.733248
20
33.866676
70
0
0
VERTEX
8
Layer 1
10
67.650566
20
38.711852
70
0
0
VERTEX
8
Layer 1
10
67.389290
20
43.100623
70
0
0
VERTEX
8
Layer 1
10
66.929577
20
47.052831
70
0
0
VERTEX
8
Layer 1
10
66.251583
20
50.588322
70
0
0
VERTEX
8
Layer 1
10
65.335465
20
53.726937
70
0
0
VERTEX
8
Layer 1
10
64.161378
20
56.488523
70
0
0
VERTEX
8
Layer 1
10
62.709478
20
58.892921
70
0
0
VERTEX
8
Layer 1
10
60.959923
20
60.959975
70
0
0
VERTEX
8
Layer 1
10
58.892869
20
62.709530
70
0
0
VERTEX
8
Layer 1
10
56.488470
20
64.161429
70
0
0
VERTEX
8
Layer 1
10
53.726885
20
65.335517
70
0
0
VERTEX
8
Layer 1
10
50.588270
20
66.251635
70
0
0
VERTEX
8
Layer 1
10
47.052779
20
66.929629
70
0
0
VERTEX
8
Layer 1
10
43.100571
20
67.389342
70
0
0
VERTEX
8
Layer 1
10
38.711800
20
67.650618
70
0
0
VERTEX
8
Layer 1
10
33.866624
20
67.733300
70
0
0
VERTEX
8
Layer 1
10
29.021448
20
67.650618
70
0
0
VERTEX
8
Layer 1
10
24.632677
20
67.389342
70
0
0
VERTEX
8
Layer 1
10
20.680469
20
66.929629
70
0
0
VERTEX
8
Layer 1
10
17.144978
20
66.251635
70
0
0
VERTEX
8
Layer 1
10
14.006363
20
65.335517
70
0
0
VERTEX
8
Layer 1
10
11.244777
20
64.161429
70
0
0
VERTEX
8
Layer 1
10
8.840379
20
62.709530
70
0
0
VERTEX
8
Layer 1
10
6.773325
20
60.959975
70
0
0
VERTEX
8
Layer 1
10
5.023770
20
58.892921
70
0
0
VERTEX
8
Layer 1
10
3.571870
20
56.488523
70
0
0
VERTEX
8
Layer 1
10
2.397783
20
53.726937
70
0
0
VERTEX
8
Layer 1
10
1.481665
20
50.588322
70
0
0
VERTEX
8
Layer 1
10
0.803671
20
47.052831
70
0
0
VERTEX
8
Layer 1
10
0.343958
20
43.100623
70
0
0
VERTEX
8
Layer 1
10
0.082682
20
38.711852
70
0
0
VERTEX
8
Layer 1
10
0.000000
20
33.866676
70
0
0
VERTEX
8
Layer 1
10
0.082682
20
29.021500
70
0
0
VERTEX
8
Layer 1
10
0.343958
20
24.632729
70
0
0
VERTEX
8
Layer 1
10
0.803671
20
20.680521
70
0
0
VERTEX
8
Layer 1
10
1.481665
20
17.145030
70
0
0
VERTEX
8
Layer 1
10
2.397783
20
14.006415
70
0
0
VERTEX
8
Layer 1
10
3.571871
20
11.244829
70
0
0
VERTEX
8
Layer 1
10
5.023770
20
8.840431
70
0
0
VERTEX
8
Layer 1
10
6.773325
20
6.773377
70
0
0
VERTEX
8
Layer 1
10
8.840379
20
5.023822
70
0
0
VERTEX
8
Layer 1
10
11.244778
20
3.571922
70
0
0
VERTEX
8
Layer 1
10
14.006363
20
2.397835
70
0
0
VERTEX
8
Layer 1
10
17.144978
20
1.481717
70
0
0
VERTEX
8
Layer 1
10
20.680469
20
0.803723
70
0
0
VERTEX
8
Layer 1
10
24.632677
20
0.344010
70
0
0
VERTEX
8
Layer 1
10
29.021448
20
0.082734
70
0
0
VERTEX
8
Layer 1
10
33.866624
20
0.000052
70
0
0
VERTEX
8
Layer 1
10
33.866624
20
0.000052
70
0
0
SEQEND
8
Layer 1
0
POLYLINE
8
Layer 1
62
7
70
1
10
0.000000
20
0.000000
66
1
0
VERTEX
8
Layer 1
10
29.855546
20
56.122816
70
0
0
VERTEX
8
Layer 1
10
29.666633
20
56.528084
70
0
0
VERTEX
8
Layer 1
10
29.234834
20
56.643991
70
0
0
VERTEX
8
Layer 1
10
19.222960
20
54.884197
70
0
0
VERTEX
8
Layer 1
10
18.909284
20
54.703262
70
0
0
VERTEX
8
Layer 1
10
18.785393
20
54.363021
70
0
0
VERTEX
8
Layer 1
10
18.785393
20
8.995874
70
0
0
VERTEX
8
Layer 1
10
18.940379
20
8.621654
70
0
0
VERTEX
8
Layer 1
10
19.314559
20
8.466708
70
0
0
VERTEX
8
Layer 1
10
29.326380
20
8.466708
70
0
0
VERTEX
8
Layer 1
10
29.700599
20
8.621654
70
0
0
VERTEX
8
Layer 1
10
29.855546
20
8.995874
70
0
0
VERTEX
8
Layer 1
10
29.855546
20
25.387055
70
0
0
VERTEX
8
Layer 1
10
29.984337
20
27.329683
70
0
0
VERTEX
8
Layer 1
10
30.344388
20
29.062766
70
0
0
VERTEX
8
Layer 1
10
30.896216
20
30.571058
70
0
0
VERTEX
8
Layer 1
10
31.600338
20
31.839309
70
0
0
VERTEX
8
Layer 1
10
32.417272
20
32.852270
70
0
0
VERTEX
8
Layer 1
10
33.307535
20
33.594693
70
0
0
VERTEX
8
Layer 1
10
34.231644
20
34.051329
70
0
0
VERTEX
8
Layer 1
10
35.150116
20
34.206930
70
0
0
VERTEX
8
Layer 1
10
35.891912
20
34.107339
70
0
0
VERTEX
8
Layer 1
10
36.500035
20
33.816848
70
0
0
VERTEX
8
Layer 1
10
36.985202
20
33.347881
70
0
0
VERTEX
8
Layer 1
10
37.358127
20
32.712863
70
0
0
VERTEX
8
Layer 1
10
37.810118
20
30.994367
70
0
0
VERTEX
8
Layer 1
10
37.941731
20
28.760753
70
0
0
VERTEX
8
Layer 1
10
37.941731
20
8.995874
70
0
0
VERTEX
8
Layer 1
10
38.096678
20
8.621654
70
0
0
VERTEX
8
Layer 1
10
38.470897
20
8.466708
70
0
0
VERTEX
8
Layer 1
10
48.530872
20
8.466708
70
0
0
VERTEX
8
Layer 1
10
48.905092
20
8.621654
70
0
0
VERTEX
8
Layer 1
10
49.060038
20
8.995874
70
0
0
VERTEX
8
Layer 1
10
49.060038
20
30.351162
70
0
0
VERTEX
8
Layer 1
10
48.925891
20
33.006226
70
0
0
VERTEX
8
Layer 1
10
48.510288
20
35.387896
70
0
0
VERTEX
8
Layer 1
10
47.793489
20
37.471325
70
0
0
VERTEX
8
Layer 1
10
46.755752
20
39.231665
70
0
0
VERTEX
8
Layer 1
10
45.377335
20
40.644071
70
0
0
VERTEX
8
Layer 1
10
43.638497
20
41.683695
70
0
0
VERTEX
8
Layer 1
10
41.519497
20
42.325690
70
0
0
VERTEX
8
Layer 1
10
39.000593
20
42.545210
70
0
0
VERTEX
8
Layer 1
10
36.774817
20
42.403591
70
0
0
VERTEX
8
Layer 1
10
34.628590
20
41.968575
70
0
0
VERTEX
8
Layer 1
10
32.613679
20
41.224924
70
0
0
VERTEX
8
Layer 1
10
30.781851
20
40.157401
70
0
0
VERTEX
8
Layer 1
10
30.479953
20
40.049745
70
0
0
VERTEX
8
Layer 1
10
30.178998
20
40.107561
70
0
0
VERTEX
8
Layer 1
10
29.947893
20
40.301355
70
0
0
VERTEX
8
Layer 1
10
29.855546
20
40.601636
70
0
0
VERTEX
8
Layer 1
10
29.855546
20
56.122816
70
0
0
VERTEX
8
Layer 1
10
29.855546
20
56.122816
70
0
0
SEQEND
8
Layer 1
 0 
ENDSEC
 0 
EOF